if (_typeface_js && _typeface_js.loadFace) _typeface_js.loadFace({"glyphs":{"S":{"x_min":16.328125,"x_max":653.75,"ha":661,"o":"m 652 812 q 652 800 655 810 q 642 776 649 789 q 627 745 636 762 q 608 715 617 729 q 591 690 599 701 q 578 677 583 680 l 538 681 q 516 730 530 709 q 484 765 501 751 q 447 786 467 779 q 406 794 427 794 q 346 783 372 794 q 304 756 321 773 q 280 718 288 739 q 272 674 272 697 q 276 643 272 659 q 296 609 281 627 q 338 571 311 591 q 411 528 366 551 q 503 475 464 501 q 567 421 542 449 q 604 362 592 393 q 616 293 616 331 q 588 172 616 229 q 511 72 560 115 q 397 4 463 29 q 257 -21 332 -21 q 207 -16 234 -21 q 153 -5 180 -12 q 102 11 126 1 q 58 32 77 21 q 27 57 39 44 q 16 83 16 70 q 21 102 16 90 q 35 128 26 114 q 54 158 44 143 q 76 185 65 172 q 97 205 86 197 q 114 213 107 213 q 130 202 121 213 q 151 177 139 192 q 178 144 163 162 q 212 110 193 125 q 255 85 232 95 q 307 75 278 75 q 369 85 340 75 q 419 116 398 96 q 453 164 440 136 q 466 229 466 193 q 456 283 466 258 q 424 331 446 308 q 366 377 402 355 q 280 424 331 400 q 206 468 235 445 q 160 517 176 492 q 136 571 143 543 q 130 629 130 598 q 152 718 130 674 q 217 796 175 762 q 319 853 260 831 q 452 875 379 875 q 568 856 516 875 q 652 812 619 837 "},"/":{"x_min":-75.28125,"x_max":676.1875,"ha":602,"o":"m 69 -183 q 45 -194 62 -188 q 10 -207 29 -200 q -25 -219 -8 -214 q -50 -228 -42 -225 l -75 -206 l 533 1040 q 558 1053 542 1046 q 590 1065 573 1059 q 623 1076 607 1071 q 649 1084 639 1081 l 676 1064 l 69 -183 "},"K":{"x_min":-5.421875,"x_max":842.359375,"ha":817,"o":"m 435 805 q 367 784 391 795 q 342 763 343 772 l 299 447 l 577 745 q 601 774 594 763 q 606 791 609 785 q 590 800 603 797 q 553 805 577 803 l 559 855 l 842 855 l 835 805 q 799 800 814 802 q 774 792 785 797 q 753 781 763 788 q 732 763 743 774 l 419 458 l 658 137 q 681 120 667 125 q 712 115 695 115 q 748 120 729 115 q 786 133 767 125 l 805 85 q 754 50 784 67 q 694 19 724 33 q 638 -1 664 6 q 596 -10 611 -10 q 563 -3 577 -10 q 538 23 550 3 l 296 423 l 250 90 q 268 70 249 82 q 331 49 286 59 l 324 0 l -5 0 l 1 49 q 68 70 45 59 q 93 90 92 81 l 185 763 q 168 783 187 771 q 105 805 149 795 l 111 855 l 442 855 l 435 805 "},"7":{"x_min":81.390625,"x_max":657.875,"ha":632,"o":"m 657 791 q 580 644 619 718 q 506 498 542 570 q 437 358 470 426 q 375 230 404 290 q 324 120 347 170 q 285 34 301 70 q 255 18 273 26 q 216 3 236 10 q 175 -9 196 -3 q 139 -20 155 -15 l 111 7 q 196 138 157 76 q 269 257 235 199 q 334 368 303 314 q 394 475 364 422 q 452 583 423 528 q 512 695 481 637 l 227 695 q 207 692 218 695 q 184 679 197 690 q 156 647 171 669 q 122 585 141 625 l 81 602 q 93 648 85 618 q 110 710 101 678 q 127 772 119 743 q 142 817 136 802 l 640 817 l 657 791 "},"d":{"x_min":26,"x_max":670.71875,"ha":692,"o":"m 400 258 q 415 362 406 303 q 435 486 425 420 q 394 522 416 506 q 347 539 372 539 q 295 525 319 539 q 253 489 272 511 q 221 438 235 467 q 197 378 207 409 q 184 315 188 346 q 180 257 180 283 q 201 143 180 181 q 250 106 222 106 q 274 114 260 106 q 307 140 288 122 q 349 187 326 158 q 400 258 372 216 m 670 70 q 614 33 642 50 q 561 1 585 15 q 516 -19 537 -11 q 482 -28 496 -28 q 456 -19 471 -28 q 429 7 442 -11 q 406 58 416 26 q 393 136 396 90 q 283 14 338 56 q 182 -28 229 -28 q 128 -14 156 -28 q 77 29 100 0 q 40 104 55 58 q 26 213 26 150 q 39 317 26 267 q 77 414 52 368 q 140 499 103 459 q 225 571 177 539 q 267 594 244 583 q 315 614 290 605 q 366 629 340 624 q 417 635 393 635 q 436 631 426 635 q 456 621 446 627 q 468 699 463 661 q 478 769 474 736 q 484 828 482 801 q 487 872 487 854 q 484 897 487 887 q 477 910 482 906 q 467 916 473 915 q 456 917 462 917 q 438 914 450 917 q 416 908 427 911 q 388 899 403 904 l 377 946 q 448 978 411 962 q 517 1005 484 993 q 575 1023 550 1016 q 613 1031 601 1031 q 648 1018 636 1031 q 661 975 661 1006 q 656 907 661 948 q 643 814 651 865 q 625 704 635 763 q 605 587 616 646 q 585 471 594 528 q 567 363 575 413 q 554 275 559 314 q 550 212 550 236 q 560 127 550 155 q 585 99 570 99 q 619 102 603 99 q 659 116 635 106 l 670 70 "},",":{"x_min":-8.765625,"x_max":254,"ha":324,"o":"m 254 79 q 244 20 254 51 q 217 -43 234 -11 q 177 -107 200 -75 q 129 -166 154 -138 q 79 -216 105 -193 q 29 -253 53 -238 l -8 -219 q 68 -109 42 -164 q 95 -15 95 -55 q 90 10 95 -2 q 77 32 86 22 q 53 47 67 42 q 19 50 39 52 l 16 103 q 38 117 23 109 q 69 133 52 125 q 107 149 87 142 q 145 162 126 157 q 179 172 164 168 q 205 176 195 176 q 226 161 217 169 q 241 141 235 152 q 250 115 247 130 q 254 79 254 100 "},"Y":{"x_min":80.703125,"x_max":855.921875,"ha":794,"o":"m 543 0 l 189 0 l 196 49 q 244 62 225 55 q 276 75 264 69 q 294 87 288 82 q 300 98 299 93 l 336 361 q 302 471 322 414 q 260 581 282 527 q 216 682 238 635 q 175 761 194 728 q 165 775 170 769 q 149 784 159 780 q 122 789 139 788 q 80 790 106 791 l 82 839 q 126 847 101 843 q 175 854 151 851 q 221 860 200 858 q 256 863 243 863 q 288 854 271 863 q 313 831 304 846 q 353 752 332 797 q 394 657 374 706 q 432 556 414 607 q 463 460 449 504 l 651 760 q 648 788 662 778 q 586 805 634 798 l 593 855 l 855 855 l 849 805 q 811 796 827 801 q 783 787 794 792 q 763 775 771 782 q 750 760 755 769 l 493 354 l 457 98 q 460 88 457 94 q 475 76 464 82 q 503 62 485 69 q 550 49 522 55 l 543 0 "},"E":{"x_min":-5.421875,"x_max":687.71875,"ha":684,"o":"m 642 205 q 627 144 635 176 q 612 83 619 112 q 598 32 604 54 q 588 0 592 10 l -5 0 l 1 49 q 68 70 45 59 q 93 90 92 81 l 185 763 q 168 783 187 771 q 105 805 149 795 l 111 855 l 666 855 l 687 833 q 678 789 684 815 q 664 735 672 763 q 649 682 657 707 q 636 645 642 658 l 589 645 q 586 741 594 708 q 554 774 578 774 l 343 774 l 305 499 l 556 499 l 574 475 q 559 452 568 465 q 540 427 550 439 q 521 403 531 414 q 504 386 512 392 q 485 403 495 396 q 460 415 474 411 q 424 421 445 419 q 374 424 403 424 l 295 424 l 255 124 q 257 106 253 114 q 273 92 260 98 q 311 84 286 87 q 377 81 336 81 l 440 81 q 490 88 468 81 q 529 112 511 95 q 562 156 546 129 q 598 223 579 183 l 642 205 "},"y":{"x_min":-133.140625,"x_max":651,"ha":664,"o":"m 651 583 q 633 512 651 560 q 583 396 615 464 q 506 241 551 327 q 409 55 462 155 q 316 -104 362 -31 q 223 -229 271 -176 q 123 -310 175 -281 q 11 -339 71 -339 q -40 -332 -15 -339 q -87 -316 -66 -326 q -120 -296 -107 -307 q -133 -279 -133 -286 q -121 -249 -133 -269 q -95 -208 -110 -229 q -64 -170 -80 -187 q -38 -148 -48 -153 q 26 -193 -6 -178 q 83 -208 58 -208 q 163 -167 122 -208 q 250 -53 203 -127 q 232 35 242 -13 q 210 134 222 83 q 184 234 197 184 q 158 329 171 285 q 133 408 145 373 q 111 464 121 443 q 85 509 96 499 q 62 520 74 520 q 45 518 56 520 q 23 512 34 515 q -3 504 10 508 l -17 549 q 45 579 13 564 q 107 607 78 594 q 159 627 136 619 q 194 635 182 635 q 227 615 213 635 q 258 548 241 595 q 283 470 270 514 q 311 374 297 426 q 338 268 325 323 q 364 156 352 212 q 417 265 392 211 q 460 365 442 319 q 490 445 479 411 q 501 495 501 479 q 465 531 501 529 q 440 529 453 533 q 408 516 428 525 l 391 561 q 443 589 415 575 q 498 612 471 602 q 549 628 525 622 q 590 635 573 635 q 612 633 601 635 q 632 626 623 631 q 645 610 640 620 q 651 583 651 600 "},"\"":{"x_min":151.921875,"x_max":582.59375,"ha":604,"o":"m 225 579 q 211 574 220 576 q 192 570 202 571 q 172 568 182 569 q 155 567 162 567 l 151 917 q 181 929 160 921 q 225 945 202 937 q 270 961 249 954 q 299 970 291 967 l 328 951 l 225 579 m 479 579 q 464 574 474 576 q 445 570 455 571 q 426 568 436 569 q 408 567 416 567 l 405 917 q 434 929 413 921 q 479 945 455 937 q 524 961 503 954 q 552 970 545 967 l 582 951 l 479 579 "},"g":{"x_min":-13.78125,"x_max":640.03125,"ha":652,"o":"m 640 590 q 603 544 616 571 q 584 467 590 516 q 570 323 574 386 q 564 205 566 260 q 557 102 561 151 q 543 0 553 53 q 515 -89 535 -45 q 467 -170 495 -132 q 404 -239 438 -208 q 332 -292 370 -270 q 257 -326 295 -314 q 183 -339 218 -339 q 114 -331 149 -339 q 50 -312 79 -324 q 4 -287 22 -301 q -13 -262 -13 -274 q -7 -243 -13 -254 q 7 -219 -1 -231 q 28 -193 17 -206 q 50 -171 39 -180 q 68 -154 60 -161 q 79 -148 77 -148 q 99 -159 87 -148 q 130 -185 111 -171 q 177 -211 148 -199 q 245 -223 205 -223 q 291 -214 270 -223 q 330 -183 313 -205 q 361 -125 347 -162 q 385 -32 374 -88 q 398 71 394 24 q 404 162 401 117 q 348 87 376 121 q 291 26 320 52 q 233 -13 262 1 q 175 -28 204 -28 q 125 -15 153 -28 q 75 25 98 -2 q 35 98 51 54 q 19 206 19 143 q 70 409 19 314 q 222 571 121 504 q 311 615 260 596 q 423 635 361 635 q 477 620 449 635 q 532 589 506 605 q 576 615 555 604 l 616 635 l 640 590 m 244 106 q 267 115 252 106 q 303 146 282 124 q 351 203 324 167 q 409 290 377 238 q 415 367 411 327 q 427 456 419 408 q 435 485 429 471 q 390 522 413 505 q 345 539 367 539 q 293 525 317 539 q 250 489 269 511 q 217 438 231 467 q 193 378 203 409 q 179 315 184 346 q 175 257 175 283 q 194 143 175 181 q 244 106 214 106 "},"e":{"x_min":33,"x_max":560,"ha":587,"o":"m 270 499 q 215 410 237 460 q 191 295 194 360 q 297 349 258 324 q 357 395 337 373 q 383 437 377 417 q 390 480 390 457 q 376 527 390 511 q 343 543 362 543 q 329 540 337 543 q 310 531 320 537 q 289 518 299 526 q 270 499 279 510 m 560 515 q 555 475 560 496 q 537 431 551 454 q 500 382 524 408 q 434 330 475 357 q 334 275 393 303 q 194 217 276 246 q 208 158 198 184 q 230 114 217 132 q 259 86 244 96 q 292 77 275 77 q 376 103 321 77 q 513 195 431 129 q 522 186 517 193 q 531 172 527 180 q 539 157 536 164 q 544 147 543 150 q 443 65 489 99 q 360 11 398 32 q 290 -18 322 -9 q 227 -28 258 -28 q 166 -15 200 -28 q 102 24 132 -2 q 53 96 73 52 q 33 205 33 140 q 45 306 33 258 q 82 399 58 355 q 140 483 106 443 q 217 559 174 523 q 254 585 232 571 q 302 609 277 598 q 356 627 328 620 q 410 635 384 635 q 477 624 449 635 q 524 596 505 613 q 551 558 542 580 q 560 515 560 537 "},"J":{"x_min":-229.921875,"x_max":472.71875,"ha":433,"o":"m 464 805 q 397 784 421 795 q 372 763 373 772 l 288 138 q 256 9 278 62 q 208 -82 235 -44 q 151 -147 181 -121 q 93 -196 121 -174 q 51 -223 75 -210 q 2 -247 27 -237 q -49 -263 -23 -257 q -94 -269 -74 -269 q -144 -261 -120 -269 q -187 -244 -168 -254 q -218 -223 -206 -234 q -229 -204 -229 -212 q -222 -189 -229 -199 q -204 -167 -215 -180 q -179 -143 -193 -155 q -152 -120 -166 -130 q -128 -102 -139 -109 q -112 -95 -118 -95 q -95 -105 -105 -95 q -71 -125 -85 -114 q -40 -145 -57 -136 q -2 -155 -23 -155 q 31 -146 14 -155 q 66 -112 49 -138 q 97 -37 82 -86 q 123 90 112 10 l 215 763 q 212 772 216 767 q 196 782 208 776 q 161 793 183 787 q 103 805 139 799 l 109 855 l 472 855 l 464 805 "},"|":{"x_min":18.984375,"x_max":307.234375,"ha":298,"o":"m 130 -185 q 112 -196 124 -190 q 89 -209 101 -202 q 64 -220 76 -215 q 44 -228 52 -225 l 18 -206 l 196 1043 q 238 1066 215 1054 q 282 1084 262 1078 l 307 1064 l 130 -185 "},"^":{"x_min":63.75,"x_max":579.203125,"ha":636,"o":"m 579 430 q 543 404 560 414 q 503 383 526 393 l 483 401 l 375 891 l 151 430 q 133 416 143 423 q 112 403 123 409 q 92 391 102 396 q 76 383 83 386 l 63 401 l 349 991 q 370 1007 358 999 q 396 1024 383 1016 q 421 1039 408 1032 q 442 1051 433 1046 l 579 430 "},"q":{"x_min":26,"x_max":645.21875,"ha":650,"o":"m 252 106 q 310 142 272 106 q 402 257 348 179 q 421 375 411 317 q 440 490 431 433 q 397 524 420 509 q 353 539 375 539 q 300 525 324 539 q 256 489 276 511 q 221 438 236 467 q 196 378 206 409 q 180 315 185 346 q 175 257 175 283 q 181 190 175 219 q 199 143 188 162 q 224 115 210 125 q 252 106 238 106 m 645 590 q 625 573 633 581 q 610 556 616 566 q 599 532 604 546 q 590 495 594 518 q 560 316 575 405 q 533 148 546 228 q 511 -3 521 67 q 496 -131 501 -75 q 491 -225 491 -187 q 498 -277 491 -263 q 480 -284 492 -279 q 451 -294 467 -288 q 418 -307 435 -301 q 385 -320 401 -313 q 357 -331 369 -326 q 340 -339 345 -336 l 310 -314 q 320 -249 313 -291 q 335 -150 326 -206 q 354 -27 344 -95 q 378 112 365 39 q 273 5 319 39 q 182 -28 226 -28 q 130 -15 158 -28 q 79 25 103 -2 q 41 98 56 54 q 26 206 26 143 q 39 312 26 260 q 80 411 53 364 q 144 499 106 458 q 230 571 182 540 q 273 594 249 583 q 325 615 298 606 q 377 629 351 624 q 425 635 403 635 q 482 621 453 635 q 534 592 510 607 q 580 614 557 604 q 622 635 603 625 l 645 590 "},"b":{"x_min":61.125,"x_max":654.03125,"ha":692,"o":"m 422 514 q 396 504 412 514 q 357 474 379 495 q 310 421 336 454 q 257 343 284 389 q 246 261 250 297 q 243 204 243 225 q 253 167 243 186 q 279 134 264 149 q 312 109 294 119 q 344 99 329 99 q 402 115 378 97 q 445 160 427 133 q 468 205 459 181 q 483 256 478 230 q 492 309 489 283 q 495 359 495 336 q 489 423 495 394 q 474 471 484 451 q 451 503 465 492 q 422 514 438 514 m 654 413 q 623 268 652 341 q 543 127 594 194 q 490 68 519 96 q 425 19 460 40 q 350 -15 389 -2 q 268 -28 311 -28 q 212 -12 245 -28 q 149 30 180 3 q 98 91 119 56 q 77 162 77 126 q 81 215 77 180 q 91 298 85 251 q 106 400 97 345 q 123 511 114 455 q 140 623 132 568 q 156 727 149 679 q 166 813 162 775 q 171 872 171 851 q 167 897 171 887 q 158 910 164 906 q 147 916 153 914 q 135 917 141 917 q 118 914 128 917 q 97 908 107 911 q 72 899 85 904 l 61 946 q 129 976 91 961 q 202 1003 167 990 q 266 1023 238 1015 q 307 1031 295 1031 q 338 1018 330 1031 q 346 975 346 1006 q 339 893 346 946 q 323 774 333 840 q 301 634 314 708 q 278 489 289 560 q 344 562 312 533 q 403 606 375 590 q 455 628 431 622 q 499 635 480 635 q 559 621 531 635 q 609 578 588 606 q 642 508 630 550 q 654 413 654 467 "},"D":{"x_min":-5.078125,"x_max":802,"ha":820,"o":"m 388 804 q 367 802 378 804 q 347 801 357 801 l 253 110 q 269 81 251 90 q 339 73 287 73 q 425 90 386 73 q 498 139 465 108 q 555 211 530 170 q 597 299 580 252 q 622 396 614 346 q 631 493 631 446 q 617 623 631 566 q 574 721 603 681 q 498 782 544 761 q 388 804 452 804 m 802 510 q 787 390 802 451 q 746 272 773 328 q 679 165 719 215 q 590 79 640 115 q 478 21 539 42 q 346 0 417 0 l -5 0 l 1 49 q 67 70 44 59 q 91 90 90 81 l 188 786 l 92 772 l 92 835 q 173 852 131 845 q 259 864 216 859 q 342 872 302 869 q 418 875 383 875 q 589 849 516 875 q 708 776 661 824 q 778 662 755 729 q 802 510 802 594 "},"z":{"x_min":-12.203125,"x_max":531.734375,"ha":532,"o":"m 531 593 q 464 516 494 553 q 409 445 435 480 q 360 376 383 411 q 311 305 337 341 q 257 228 286 268 q 193 142 229 187 q 211 147 202 144 q 229 151 219 149 q 248 153 239 153 q 283 147 262 153 q 326 134 303 141 q 370 121 348 127 q 410 116 392 116 q 424 118 416 116 q 442 128 432 120 q 462 150 451 135 q 486 189 474 165 l 526 166 q 491 90 507 124 q 454 33 474 57 q 411 -1 435 10 q 354 -14 387 -14 q 295 -6 324 -14 q 239 9 266 0 q 189 24 212 17 q 149 32 166 32 q 95 18 127 32 q 12 -21 63 4 l -12 12 q 55 98 21 53 q 121 189 88 143 q 184 279 153 234 q 242 363 215 323 q 294 437 270 403 q 338 494 318 470 l 181 494 q 153 490 165 494 q 130 476 141 486 q 111 447 120 465 q 92 401 103 429 l 48 411 q 63 475 54 442 q 78 539 71 508 q 91 595 86 569 q 100 635 97 620 q 135 626 113 631 q 181 621 158 621 l 512 621 l 531 593 "},"w":{"x_min":-7.921875,"x_max":943,"ha":941,"o":"m 943 583 q 938 543 943 565 q 922 491 933 521 q 892 420 911 461 q 844 324 873 379 q 776 196 816 269 q 685 29 737 124 q 664 18 679 26 q 630 0 648 10 q 597 -16 613 -8 q 574 -28 581 -25 l 546 -2 q 531 111 539 55 q 515 218 523 167 q 499 312 507 269 q 481 386 490 355 q 462 325 475 362 q 429 243 449 288 q 383 145 409 197 q 326 37 357 92 q 303 24 320 33 q 265 4 285 15 q 227 -15 245 -6 q 203 -28 209 -25 l 176 -2 q 167 81 172 36 q 157 173 162 127 q 148 265 152 220 q 138 349 143 311 q 129 416 133 387 q 122 459 125 445 q 112 489 118 478 q 100 506 106 499 q 87 513 93 512 q 74 515 80 515 q 57 513 68 515 q 34 507 46 510 q 6 499 21 504 l -7 544 q 54 575 21 559 q 117 605 87 592 q 171 626 147 618 q 205 635 194 635 q 234 612 224 635 q 255 542 244 590 q 263 499 258 527 q 271 436 267 471 q 280 362 276 400 q 289 287 285 323 q 296 221 293 251 q 300 174 299 191 q 351 282 327 227 q 393 387 375 337 q 423 481 411 438 q 435 555 434 525 q 468 582 449 568 q 506 607 487 596 q 542 627 525 619 q 569 635 559 635 q 577 623 572 635 q 586 594 581 612 q 598 551 592 575 q 609 502 603 527 q 619 452 614 477 q 628 406 624 427 q 638 342 632 375 q 649 279 644 309 q 658 219 654 248 q 665 166 662 190 q 773 377 736 293 q 810 501 810 460 q 800 523 810 515 q 772 531 790 531 q 746 529 763 531 q 715 521 730 526 l 698 567 q 751 595 723 582 q 803 616 778 607 q 850 630 828 625 q 886 635 871 635 q 907 633 897 635 q 925 626 917 631 q 938 610 933 620 q 943 583 943 600 "},"$":{"x_min":-6.8125,"x_max":615.328125,"ha":632,"o":"m 209 644 q 212 614 209 628 q 225 587 215 600 q 252 561 235 574 q 295 534 268 548 l 325 752 q 278 738 300 748 q 241 713 256 728 q 217 681 225 699 q 209 644 209 663 m 436 232 q 415 298 436 270 q 348 353 394 326 l 310 80 q 402 130 369 91 q 436 232 436 170 m 614 775 q 613 763 616 773 q 604 737 610 752 q 588 704 597 722 q 571 670 580 686 q 554 643 562 655 q 542 629 546 632 l 503 635 q 468 702 493 672 q 402 745 444 732 l 368 500 q 455 458 417 479 q 519 411 493 436 q 558 354 544 385 q 572 283 572 323 q 554 181 572 230 q 502 93 536 133 q 416 25 467 53 q 296 -14 364 -2 l 286 -88 q 257 -106 274 -98 q 224 -119 241 -114 l 206 -99 l 216 -20 q 212 -20 214 -20 q 208 -21 209 -21 q 139 -10 176 -21 q 69 16 101 0 q 14 51 36 32 q -6 88 -6 71 q -2 108 -6 95 q 9 138 2 122 q 26 170 16 153 q 45 199 35 186 q 64 221 54 212 q 80 229 73 229 q 92 220 86 229 q 107 197 99 211 q 126 164 115 182 q 152 130 137 147 q 186 100 167 113 q 230 80 205 86 l 274 389 l 250 399 q 174 436 207 416 q 119 479 141 455 q 86 531 97 503 q 75 595 75 560 q 90 670 75 632 q 137 740 105 708 q 218 796 169 773 q 336 829 268 819 l 348 907 q 377 927 365 918 q 407 942 390 936 l 428 921 l 415 834 l 417 834 q 473 829 446 834 q 526 816 501 824 q 574 797 552 808 q 614 775 596 787 "},"\\":{"x_min":93.59375,"x_max":493.0625,"ha":581,"o":"m 464 -228 q 441 -219 457 -225 q 407 -207 425 -214 q 375 -194 390 -200 q 356 -183 360 -188 l 93 1064 l 123 1084 q 147 1076 132 1081 q 178 1065 162 1071 q 209 1053 194 1059 q 231 1040 223 1046 l 493 -206 l 464 -228 "},"~":{"x_min":50.859375,"x_max":644.3125,"ha":667,"o":"m 644 525 q 601 456 626 492 q 547 391 576 421 q 486 343 518 362 q 425 324 455 324 q 372 341 399 324 q 317 378 344 358 q 261 415 289 398 q 206 433 233 433 q 145 406 175 433 q 82 322 115 379 l 50 340 q 94 409 69 373 q 148 475 119 445 q 208 523 177 504 q 269 543 239 543 q 326 525 298 543 q 382 488 354 508 q 435 451 409 468 q 487 434 461 434 q 548 460 517 434 q 613 542 579 486 l 644 525 "},"-":{"x_min":18.984375,"x_max":429.3125,"ha":461,"o":"m 429 371 q 421 354 426 364 q 410 333 416 344 q 399 312 404 322 q 391 298 394 303 l 36 298 l 18 319 q 26 337 21 327 q 36 357 31 346 q 48 376 42 367 q 58 393 54 386 l 411 393 l 429 371 "},"Q":{"x_min":51,"x_max":849.859375,"ha":814,"o":"m 622 512 q 611 619 622 569 q 579 706 600 669 q 526 763 558 742 q 454 785 495 785 q 379 765 413 785 q 318 712 345 745 q 272 636 292 679 q 240 546 252 593 q 221 451 227 499 q 215 360 215 403 q 225 244 215 297 q 258 153 236 191 q 309 94 279 115 q 380 73 340 73 q 458 93 423 73 q 519 148 493 114 q 566 227 546 182 q 597 321 585 273 q 616 420 610 370 q 622 512 622 469 m 849 -84 q 809 -139 830 -114 q 769 -182 788 -164 q 733 -210 750 -200 q 708 -221 717 -221 q 650 -210 678 -221 q 595 -183 622 -199 q 541 -144 568 -166 q 488 -99 514 -122 q 434 -55 461 -77 q 379 -17 407 -33 q 360 -19 370 -18 q 339 -21 350 -21 q 217 6 270 -21 q 126 82 163 34 q 70 194 89 130 q 51 328 51 257 q 59 428 51 379 q 83 522 67 476 q 121 611 99 569 q 170 690 143 653 q 233 762 198 728 q 309 820 267 795 q 397 860 350 845 q 498 875 444 875 q 624 847 571 875 q 713 771 678 819 q 766 659 749 723 q 784 524 784 596 q 774 427 784 476 q 748 329 765 377 q 707 236 731 281 q 651 152 682 191 q 579 77 619 111 q 493 18 539 42 q 557 -13 527 5 q 617 -48 588 -31 q 673 -76 646 -65 q 729 -88 701 -88 q 745 -86 737 -88 q 764 -79 753 -84 q 788 -64 774 -74 q 824 -40 803 -55 l 849 -84 "},"M":{"x_min":4.0625,"x_max":1112.96875,"ha":1089,"o":"m 1106 805 q 1069 800 1091 805 q 1023 786 1047 795 l 937 90 q 957 70 935 82 q 1023 49 978 59 l 1016 0 l 690 0 l 697 49 q 767 70 740 59 q 794 90 793 81 l 863 648 l 508 0 l 449 0 l 273 647 l 191 90 q 209 70 190 82 q 272 49 228 59 l 266 0 l 4 0 l 10 49 q 78 70 54 59 q 102 90 101 81 l 203 782 q 161 800 183 795 q 120 805 139 805 l 127 855 l 345 855 q 356 852 351 855 q 364 844 360 850 q 373 827 368 838 q 382 798 377 816 l 537 233 l 847 798 q 865 828 857 817 q 878 845 872 840 q 889 853 884 851 q 900 855 894 855 l 1112 855 l 1106 805 "},"C":{"x_min":42,"x_max":730.28125,"ha":705,"o":"m 729 807 q 727 795 731 805 q 715 770 723 785 q 698 738 708 755 q 678 706 688 721 q 659 678 668 691 q 643 661 649 666 l 603 671 q 580 713 593 693 q 549 749 567 733 q 508 773 531 764 q 457 783 485 783 q 405 775 430 783 q 353 746 380 767 q 282 662 310 713 q 236 557 253 612 q 212 447 219 502 q 205 350 205 392 q 223 226 205 276 q 271 146 242 176 q 334 103 300 116 q 398 91 368 91 q 437 94 415 91 q 487 109 460 98 q 548 139 514 120 q 624 189 582 158 q 631 181 628 188 q 639 166 635 174 q 645 152 642 158 q 649 143 647 145 q 558 66 603 97 q 473 16 514 35 q 394 -9 432 -1 q 325 -18 357 -18 q 215 4 266 -18 q 125 68 163 26 q 64 171 86 110 q 42 311 42 232 q 55 441 42 375 q 96 570 69 507 q 165 689 123 632 q 264 791 207 746 q 319 826 289 810 q 381 852 349 841 q 447 869 413 863 q 512 875 481 875 q 578 869 546 875 q 640 855 611 864 q 691 833 668 845 q 729 807 715 821 "},"[":{"x_min":33.90625,"x_max":558.859375,"ha":491,"o":"m 558 1061 q 552 1042 556 1053 q 541 1020 547 1031 q 531 1000 536 1009 q 524 988 526 992 l 346 988 l 192 -130 l 366 -130 l 390 -155 q 384 -171 388 -161 q 374 -192 379 -181 q 364 -212 369 -203 q 356 -228 360 -221 l 33 -228 l 218 1084 l 535 1084 l 558 1061 "},"L":{"x_min":-5.421875,"x_max":636.171875,"ha":673,"o":"m 636 205 q 621 144 630 176 q 606 83 613 112 q 592 32 598 54 q 581 0 585 10 l -5 0 l 1 49 q 68 70 45 59 q 93 90 92 81 l 185 763 q 168 783 187 771 q 105 805 149 795 l 111 855 l 442 855 l 435 805 q 367 784 391 795 q 342 763 343 772 l 255 129 q 258 108 254 117 q 275 93 262 99 q 309 84 287 87 q 366 81 331 81 l 436 81 q 486 88 465 81 q 524 112 507 95 q 557 156 541 129 q 592 223 573 183 l 636 205 "},"!":{"x_min":30,"x_max":345.21875,"ha":324,"o":"m 238 113 q 229 66 238 90 q 205 23 221 42 q 165 -8 189 4 q 111 -21 142 -21 q 49 0 69 -21 q 30 56 30 21 q 38 100 30 77 q 64 143 47 123 q 104 174 80 162 q 156 187 127 187 q 217 166 197 187 q 238 113 238 145 m 203 279 q 169 261 189 270 q 132 247 149 253 l 116 261 l 153 896 q 189 915 167 904 q 235 938 211 926 q 281 959 259 949 q 316 974 303 969 l 345 952 l 203 279 "}," ":{"x_min":0,"x_max":0,"ha":333},"{":{"x_min":69.171875,"x_max":534.4375,"ha":467,"o":"m 534 1032 q 484 996 507 1016 q 443 955 461 977 q 414 908 425 933 q 398 859 402 884 q 394 795 394 823 q 395 742 394 768 q 397 688 396 716 q 392 625 397 661 q 375 569 388 597 q 343 518 362 542 q 298 474 323 494 q 244 442 272 454 q 329 383 305 430 q 341 260 352 336 q 328 193 337 224 q 311 132 320 161 q 295 76 303 104 q 283 18 287 48 q 280 -31 279 -9 q 289 -74 280 -54 q 315 -113 297 -95 q 364 -152 333 -132 l 332 -214 q 235 -167 277 -190 q 166 -113 193 -143 q 128 -47 139 -84 q 124 38 118 -10 q 137 103 129 74 q 153 159 145 131 q 170 217 162 187 q 184 285 179 247 q 172 363 191 340 q 113 387 153 387 l 101 387 q 93 386 96 387 q 85 385 90 386 q 72 382 81 384 l 69 439 q 180 497 143 460 q 225 585 218 534 q 230 649 230 622 q 229 702 230 676 q 227 754 227 727 q 232 820 227 782 q 262 904 238 865 q 324 975 286 943 q 411 1035 362 1008 q 516 1085 459 1061 l 534 1032 "},"X":{"x_min":-23.734375,"x_max":843.03125,"ha":822,"o":"m 758 0 l 423 0 l 430 50 q 476 57 458 52 q 502 67 493 61 q 510 83 510 74 q 503 106 510 93 l 385 341 l 210 106 q 195 82 198 92 q 198 65 191 72 q 220 55 204 59 q 265 50 236 52 l 258 0 l -23 0 l -16 50 q 54 66 24 53 q 104 106 84 79 l 343 428 l 183 748 q 168 772 175 763 q 150 788 160 782 q 127 798 141 794 q 92 805 113 802 l 99 855 l 439 855 l 432 805 q 360 788 378 800 q 357 748 342 777 l 459 542 l 607 748 q 621 773 618 764 q 618 790 624 783 q 595 800 612 796 q 552 805 579 803 l 558 855 l 843 855 l 836 805 q 794 798 813 802 q 761 788 776 794 q 735 772 747 781 q 713 748 723 762 l 501 458 l 678 106 q 692 82 685 92 q 710 66 700 73 q 733 56 720 60 q 765 50 746 52 l 758 0 "},"P":{"x_min":-5.203125,"x_max":738,"ha":721,"o":"m 738 639 q 713 529 738 581 q 645 438 688 477 q 546 376 603 399 q 426 353 489 353 q 373 359 400 353 q 329 375 347 365 l 317 446 q 359 430 340 436 q 401 424 377 424 q 473 437 441 424 q 527 474 505 450 q 562 534 550 499 q 574 614 574 570 q 557 708 574 671 q 512 766 540 744 q 447 795 484 787 q 372 804 411 804 l 361 804 q 350 803 355 804 l 251 90 q 254 82 250 86 q 270 71 258 77 q 302 61 281 66 q 354 49 322 55 l 348 0 l -5 0 l 1 49 q 67 70 44 59 q 91 90 90 81 l 188 787 q 140 779 164 784 q 91 769 116 775 l 91 830 q 163 849 124 841 q 243 863 202 857 q 325 871 283 868 q 405 875 366 875 q 545 860 483 875 q 650 815 607 845 q 715 741 693 785 q 738 639 738 697 "},"%":{"x_min":54,"x_max":887,"ha":941,"o":"m 757 282 q 741 365 757 340 q 702 390 725 390 q 667 376 682 390 q 641 339 652 362 q 622 287 630 316 q 610 230 615 259 q 604 175 606 201 q 603 133 603 150 q 616 54 603 79 q 659 30 630 30 q 690 42 676 30 q 715 74 704 54 q 734 121 725 95 q 747 175 742 147 q 754 231 752 203 q 757 282 757 259 m 887 271 q 870 167 887 219 q 821 72 853 115 q 742 4 789 30 q 634 -22 695 -22 q 567 -8 598 -22 q 515 29 537 5 q 481 83 493 52 q 470 148 470 114 q 487 252 470 200 q 537 346 504 304 q 618 414 570 388 q 726 441 665 441 q 790 429 761 441 q 841 395 819 417 q 874 341 862 372 q 887 271 887 309 m 182 4 q 161 -3 174 0 q 134 -10 148 -7 q 106 -16 120 -13 q 84 -21 93 -18 l 71 0 l 759 813 q 779 820 766 816 q 806 827 792 824 q 833 833 820 830 q 854 838 847 836 l 868 817 l 182 4 m 343 681 q 338 731 343 710 q 327 764 334 751 q 309 783 319 777 q 287 789 299 789 q 252 774 267 789 q 225 737 236 760 q 206 685 214 714 q 194 629 199 657 q 188 574 190 600 q 187 532 187 549 q 200 453 187 477 q 244 429 214 429 q 275 441 261 429 q 300 473 289 453 q 319 519 311 493 q 332 573 327 545 q 340 629 338 601 q 343 681 343 657 m 471 670 q 454 566 471 618 q 405 472 437 514 q 327 403 373 429 q 219 377 280 377 q 151 390 182 377 q 99 427 121 404 q 65 481 77 451 q 54 547 54 512 q 71 651 54 599 q 121 745 88 703 q 202 813 154 787 q 311 840 250 840 q 375 828 346 840 q 425 793 404 816 q 459 740 447 771 q 471 670 471 708 "},"#":{"x_min":28.484375,"x_max":680.9375,"ha":632,"o":"m 569 662 l 667 662 l 680 645 q 672 626 678 637 q 661 602 667 614 q 649 580 655 591 q 640 564 643 569 l 530 564 l 470 410 l 569 410 l 580 391 q 573 373 578 385 q 562 350 568 362 q 551 328 556 339 q 542 312 545 318 l 431 312 l 354 115 q 337 106 347 110 q 316 98 327 102 l 293 92 q 274 86 282 88 l 259 99 l 343 312 l 232 312 l 155 115 q 139 106 149 110 q 117 98 128 102 l 94 92 q 75 86 84 88 l 61 99 l 144 312 l 40 312 l 28 328 q 36 346 31 335 q 47 369 41 357 q 58 392 52 380 q 68 410 64 403 l 183 410 l 243 564 l 140 564 l 126 580 q 134 598 129 587 q 145 621 139 609 q 157 644 151 633 q 166 662 163 655 l 282 662 l 356 848 q 374 857 363 853 q 395 864 384 861 q 416 869 406 867 q 434 876 426 872 l 450 861 l 371 662 l 480 662 l 554 848 q 572 857 562 853 q 594 864 583 861 q 615 869 604 867 q 632 876 625 872 l 648 861 l 569 662 m 271 410 l 381 410 l 442 564 l 332 564 l 271 410 "},"_":{"x_min":-21.03125,"x_max":536.46875,"ha":625,"o":"m 536 -111 q 529 -128 534 -118 q 519 -149 524 -139 q 508 -170 514 -160 q 499 -187 503 -180 l -4 -187 l -21 -164 q -14 -147 -18 -157 q -4 -126 -9 -137 q 7 -105 1 -116 l 17 -89 l 519 -89 l 536 -111 "},"+":{"x_min":40.6875,"x_max":521.546875,"ha":555,"o":"m 521 409 q 513 390 518 401 q 502 368 508 379 q 491 347 497 357 q 482 332 485 337 l 324 332 l 299 152 q 283 144 293 149 q 263 137 274 140 q 242 130 252 133 q 225 126 231 127 l 208 146 l 234 332 l 56 332 l 40 353 q 48 370 43 360 q 59 392 53 381 q 70 413 64 402 q 79 430 75 423 l 248 430 l 273 611 q 288 617 278 613 q 308 624 298 620 q 329 631 319 628 q 347 637 340 634 l 363 615 l 337 430 l 503 430 l 521 409 "},")":{"x_min":-65.109375,"x_max":379.203125,"ha":429,"o":"m 368 430 q 317 219 353 319 q 227 35 280 119 q 107 -111 174 -47 q -39 -214 39 -175 l -65 -163 q 21 -72 -19 -125 q 96 51 62 -19 q 157 211 131 122 q 199 410 183 300 q 215 599 213 508 q 206 771 217 691 q 169 918 195 851 q 103 1037 144 986 l 143 1088 q 260 979 210 1047 q 339 826 309 912 q 376 639 368 740 q 368 430 384 538 "},"'":{"x_min":151.921875,"x_max":328.9375,"ha":324,"o":"m 225 579 q 211 574 220 576 q 192 570 202 571 q 172 568 182 569 q 155 567 162 567 l 151 917 q 181 929 160 921 q 225 945 202 937 q 270 961 249 954 q 299 970 291 967 l 328 951 l 225 579 "},"}":{"x_min":-55.609375,"x_max":408.96875,"ha":466,"o":"m 408 431 q 297 373 335 410 q 252 285 259 337 q 247 221 246 248 q 249 168 247 194 q 250 116 250 143 q 246 51 250 88 q 214 -33 239 4 q 152 -104 190 -71 q 66 -163 115 -136 q -37 -214 17 -190 l -55 -161 q 34 -83 -2 -127 q 78 12 71 -39 q 83 75 83 47 q 82 128 83 102 q 81 182 81 154 q 85 245 80 209 q 102 301 89 274 q 135 352 115 328 q 180 396 155 376 q 233 427 205 415 q 149 487 172 440 q 136 610 126 534 q 149 677 141 646 q 166 737 158 709 q 182 793 174 766 q 194 851 190 821 q 198 902 198 879 q 188 945 197 925 q 162 984 180 965 q 113 1022 143 1002 l 146 1084 q 243 1037 201 1061 q 311 984 284 1013 q 349 918 338 955 q 353 832 360 881 q 340 767 347 796 q 323 710 332 739 q 307 652 315 682 q 294 585 299 623 q 305 507 286 530 q 364 484 324 484 l 377 484 q 384 484 381 484 q 392 485 387 484 q 406 488 396 486 l 408 431 "},"a":{"x_min":26,"x_max":665.359375,"ha":669,"o":"m 396 256 q 405 317 400 284 q 415 381 410 349 q 425 442 420 413 q 433 492 429 470 q 392 524 414 510 q 349 539 370 539 q 297 524 321 538 q 255 488 273 511 q 222 437 236 466 q 198 377 207 408 q 184 314 189 345 q 180 256 180 283 q 185 190 180 218 q 200 142 190 161 q 221 114 209 124 q 245 105 232 105 q 307 143 267 105 q 396 256 346 182 m 665 71 q 608 33 636 51 q 556 1 580 15 q 512 -20 531 -12 q 480 -28 492 -28 q 454 -20 469 -28 q 426 5 439 -13 q 402 55 413 24 q 389 134 392 86 q 342 75 367 104 q 291 22 317 45 q 236 -14 264 0 q 181 -28 208 -28 q 129 -15 156 -28 q 79 25 102 -2 q 41 98 56 54 q 26 206 26 143 q 39 311 26 260 q 78 409 53 362 q 142 497 104 456 q 227 571 179 538 q 268 594 245 583 q 315 615 290 606 q 368 629 340 624 q 424 635 395 635 q 480 622 453 635 q 531 594 507 609 q 577 615 554 605 q 619 635 600 625 l 640 590 q 621 573 628 581 q 608 556 613 566 q 598 532 602 546 q 589 495 594 518 q 571 400 579 446 q 557 316 562 354 q 548 248 551 277 q 546 204 546 219 q 556 127 546 157 q 581 97 566 97 q 611 100 595 97 q 654 115 627 104 l 665 71 "},"T":{"x_min":63.75,"x_max":809.125,"ha":752,"o":"m 514 0 l 160 0 l 166 49 q 216 62 196 55 q 248 75 236 69 q 265 87 260 82 q 271 98 271 93 l 364 774 l 205 774 q 186 766 196 774 q 166 742 177 759 q 141 698 155 725 q 107 632 126 671 l 63 650 q 74 697 67 669 q 88 754 80 725 q 103 810 96 784 q 117 855 111 837 l 789 855 l 809 833 q 800 791 806 816 q 787 739 794 766 q 773 685 780 711 q 759 638 765 658 l 712 638 q 709 695 710 670 q 705 738 708 721 q 695 764 702 755 q 675 774 689 774 l 521 774 l 429 98 q 432 88 428 94 q 446 76 436 82 q 474 62 456 69 q 520 49 493 55 l 514 0 "},"=":{"x_min":29.15625,"x_max":569.03125,"ha":600,"o":"m 569 511 q 561 492 566 503 q 550 470 556 481 q 538 449 544 459 q 530 434 533 439 l 73 434 l 56 455 q 64 472 59 462 q 74 494 69 483 q 86 515 80 504 q 95 532 91 525 l 552 532 l 569 511 m 541 308 q 533 289 538 300 q 522 267 528 278 q 511 246 516 256 q 502 231 505 236 l 45 231 l 29 252 q 36 269 31 259 q 47 291 41 280 q 58 312 52 301 q 67 329 63 322 l 524 329 l 541 308 "},"N":{"x_min":-1.359375,"x_max":915.59375,"ha":858,"o":"m 909 805 q 841 786 862 798 q 817 763 819 773 l 710 -20 q 616 4 651 -14 q 567 54 582 24 l 263 625 l 190 90 q 193 81 189 86 q 206 69 196 75 q 231 58 215 63 q 270 49 246 52 l 263 0 l -1 0 l 5 49 q 73 68 52 55 q 96 90 94 81 l 187 756 q 107 805 153 797 l 113 855 l 286 855 q 304 853 297 855 q 316 846 310 852 q 327 830 322 841 q 343 802 333 820 l 650 223 l 724 763 q 721 773 725 767 q 709 784 718 779 q 684 795 700 790 q 644 805 668 801 l 650 855 l 915 855 l 909 805 "},"2":{"x_min":-5.546875,"x_max":601,"ha":632,"o":"m 601 691 q 593 634 601 663 q 567 569 586 604 q 517 490 548 533 q 438 392 486 447 q 325 270 391 338 q 173 116 260 202 l 417 116 q 437 121 428 116 q 455 137 447 127 q 469 159 463 147 q 480 184 475 171 q 499 253 492 215 l 549 240 l 506 0 l 5 0 l -5 50 q 200 267 115 172 q 337 436 284 362 q 414 565 390 510 q 438 662 438 619 q 416 735 438 711 q 353 759 394 759 q 310 746 328 759 q 281 715 292 734 q 264 671 269 695 q 259 623 258 647 q 230 610 248 617 q 191 596 212 603 q 151 586 170 590 q 117 579 131 581 l 100 626 q 132 698 105 661 q 201 766 159 735 q 296 817 243 797 q 408 837 350 837 q 480 829 446 837 q 542 804 515 822 q 585 760 569 787 q 601 691 601 732 "},"j":{"x_min":-268.578125,"x_max":362.84375,"ha":383,"o":"m 307 590 q 306 564 307 582 q 301 520 304 545 q 296 466 299 495 q 289 410 293 437 q 284 359 286 382 q 280 320 281 335 q 267 209 274 274 q 248 60 261 145 q 215 -60 237 -7 q 165 -154 193 -113 q 107 -225 138 -195 q 49 -277 77 -255 q -33 -322 12 -306 q -118 -339 -78 -339 q -173 -331 -146 -339 q -221 -312 -200 -323 q -255 -290 -242 -301 q -268 -272 -268 -279 q -256 -244 -268 -263 q -227 -206 -244 -225 q -196 -172 -211 -187 q -173 -158 -180 -158 q -153 -168 -166 -158 q -125 -191 -141 -178 q -88 -213 -109 -203 q -44 -224 -68 -224 q 1 -211 -16 -224 q 32 -171 19 -198 q 56 -99 46 -144 q 76 7 66 -55 q 91 103 84 58 q 102 187 97 148 q 111 256 107 226 q 116 306 114 286 q 121 346 118 322 q 125 396 123 371 q 128 442 127 420 q 130 475 130 464 q 128 499 130 490 q 122 513 126 508 q 113 519 118 517 q 102 520 108 520 q 85 518 96 520 q 65 512 75 515 q 40 504 52 508 l 27 549 q 91 577 55 562 q 162 605 128 592 q 224 626 196 618 q 264 635 252 635 q 295 626 283 635 q 307 590 307 618 m 362 855 q 355 816 362 836 q 331 779 347 796 q 294 751 316 762 q 243 740 272 740 q 190 757 207 740 q 174 797 174 774 q 182 836 174 815 q 205 873 189 856 q 242 902 220 890 q 293 914 265 914 q 346 896 329 914 q 362 855 362 878 "},"Z":{"x_min":10.859375,"x_max":733.15625,"ha":722,"o":"m 216 88 l 503 88 q 529 98 517 88 q 554 129 541 108 q 581 181 567 150 q 613 255 595 213 l 665 241 q 655 186 661 218 q 643 118 649 153 q 632 51 638 83 q 624 0 627 19 l 28 0 l 10 35 l 531 768 l 285 768 q 261 756 275 768 q 231 723 246 744 q 200 673 215 702 q 173 607 185 643 l 120 620 l 177 867 q 208 860 194 862 q 235 856 221 857 q 262 855 248 855 q 295 855 277 855 l 717 855 l 733 820 l 216 88 "},"u":{"x_min":16.90625,"x_max":724.71875,"ha":746,"o":"m 724 71 q 670 35 697 53 q 617 3 642 17 q 569 -19 591 -10 q 531 -28 547 -28 q 501 -17 516 -28 q 472 13 485 -7 q 451 66 460 34 q 441 140 443 98 q 385 73 415 104 q 322 20 355 42 q 258 -15 290 -2 q 194 -28 225 -28 q 154 -17 175 -28 q 115 14 133 -6 q 86 66 98 35 q 75 138 75 97 q 78 187 75 159 q 86 247 81 215 q 97 311 91 278 q 108 376 103 345 q 116 432 113 406 q 120 474 120 457 q 117 499 120 490 q 112 513 115 508 q 103 518 108 517 q 92 520 98 520 q 75 517 86 520 q 54 512 65 515 q 27 504 42 508 l 16 549 q 82 577 45 562 q 155 605 120 592 q 219 626 191 618 q 260 635 248 635 q 287 622 280 635 q 294 577 294 609 q 289 526 294 558 q 279 457 285 494 q 267 380 273 420 q 254 302 260 339 q 244 233 248 265 q 240 182 240 201 q 251 123 240 143 q 275 104 262 104 q 304 113 287 104 q 345 143 322 123 q 394 196 367 163 q 451 273 421 228 q 460 330 455 301 q 469 385 465 358 q 476 435 473 412 q 480 474 480 458 q 478 499 480 490 q 473 512 476 508 q 465 518 469 517 q 454 520 461 520 q 438 517 448 520 q 419 511 429 515 q 395 503 408 508 l 383 549 q 448 577 412 562 q 519 605 484 592 q 581 626 553 618 q 621 635 609 635 q 646 622 640 635 q 653 577 653 609 q 649 529 653 558 q 640 466 645 499 q 628 396 634 432 q 616 325 622 359 q 607 260 611 291 q 604 207 604 230 q 613 121 604 145 q 639 97 622 97 q 672 101 657 97 q 712 115 688 105 l 724 71 "},"1":{"x_min":46.796875,"x_max":530.375,"ha":632,"o":"m 522 0 l 46 0 l 54 56 q 138 70 104 62 q 192 86 171 77 q 222 102 212 94 q 232 117 231 109 l 300 616 q 304 658 303 644 q 298 683 304 673 q 285 690 295 687 q 257 692 276 692 q 209 687 238 691 q 137 673 180 683 l 127 728 q 172 740 145 732 q 230 759 199 749 q 294 781 261 769 q 357 804 326 793 q 412 826 387 816 q 454 844 438 836 l 478 815 l 383 117 q 387 102 381 110 q 409 86 393 94 q 455 70 425 78 q 530 56 484 62 l 522 0 "},"k":{"x_min":47.5,"x_max":690.625,"ha":681,"o":"m 349 961 q 344 895 349 934 q 334 807 340 855 q 319 704 327 759 q 300 591 310 649 q 281 473 291 533 q 262 358 271 414 l 377 444 q 452 502 424 479 q 487 539 481 525 q 479 558 494 553 q 424 562 463 563 l 418 608 q 527 623 473 616 q 624 631 581 631 q 677 619 664 631 q 690 584 690 607 q 676 556 690 574 q 633 515 661 538 q 565 463 605 491 q 474 404 525 435 l 389 352 q 422 307 406 333 q 454 252 439 281 q 485 196 470 224 q 514 147 500 169 q 542 111 528 125 q 569 98 556 98 q 608 102 585 98 q 657 120 631 106 l 679 77 q 630 39 656 58 q 580 6 605 21 q 532 -16 554 -7 q 495 -26 510 -26 q 450 -5 472 -26 q 408 46 429 14 q 368 117 388 78 q 329 196 348 157 q 292 269 310 235 q 257 324 274 303 q 243 228 249 273 q 233 146 237 182 q 229 83 230 109 q 233 43 229 56 q 201 28 223 39 q 153 7 179 18 q 106 -13 128 -3 q 76 -28 84 -23 l 47 -2 q 56 59 50 17 q 73 159 63 102 q 93 284 82 216 q 116 422 105 351 q 138 561 127 493 q 156 690 148 630 q 169 797 164 750 q 175 870 175 844 q 172 896 175 887 q 166 910 170 906 q 156 916 162 915 q 142 917 150 917 q 125 914 137 917 q 102 908 113 911 q 73 899 88 904 l 61 946 q 127 973 90 959 q 201 1001 165 988 q 267 1022 237 1014 q 308 1031 296 1031 q 325 1028 318 1031 q 338 1019 333 1026 q 346 998 343 1012 q 349 961 349 984 "},"€":{"x_min":-15.5,"x_max":655.453125,"ha":632,"o":"m 400 296 l 212 296 q 224 191 212 233 q 255 124 236 149 q 299 87 275 98 q 349 77 324 77 q 384 80 366 77 q 424 94 402 83 q 474 123 447 104 q 538 173 502 142 q 552 151 546 164 q 564 128 559 139 q 483 53 520 82 q 413 7 446 24 q 350 -14 380 -8 q 291 -20 320 -20 q 199 0 242 -20 q 123 59 155 20 q 72 158 91 99 q 53 296 53 217 l 0 296 l -15 318 q -10 331 -13 323 q -2 347 -6 339 q 4 364 0 356 q 10 378 8 372 l 57 378 q 58 387 58 382 q 60 396 59 391 q 64 426 62 411 q 69 455 67 440 l 40 455 l 25 477 q 30 490 27 482 q 37 506 34 498 q 45 523 41 515 q 51 537 48 531 l 91 537 q 152 669 115 613 q 236 763 188 726 q 341 819 284 801 q 464 838 399 838 q 577 818 527 838 q 654 769 626 798 q 653 758 656 767 q 641 736 649 749 q 623 707 633 722 q 604 677 614 691 q 585 652 594 663 q 570 635 576 640 l 531 644 q 480 721 509 695 q 404 748 451 748 q 364 739 385 748 q 321 708 342 731 q 280 644 300 686 q 244 537 260 603 l 470 537 l 487 516 l 460 455 l 227 455 q 223 431 225 443 q 220 405 221 418 q 218 391 218 398 l 216 378 l 411 378 l 428 357 l 400 296 "},"<":{"x_min":39.34375,"x_max":577.84375,"ha":600,"o":"m 577 602 l 543 514 l 202 385 l 514 253 l 524 224 q 490 193 509 210 q 451 163 472 175 l 55 329 l 39 356 q 46 376 42 365 q 55 398 50 387 q 65 420 60 410 q 73 438 69 431 l 560 624 l 577 602 "},"t":{"x_min":30.671875,"x_max":490.984375,"ha":470,"o":"m 449 105 q 375 50 412 75 q 303 9 337 26 q 241 -18 269 -8 q 194 -28 213 -28 q 153 -17 173 -28 q 115 10 132 -7 q 89 53 99 28 q 79 108 79 78 q 79 134 79 121 q 80 161 79 147 q 83 190 81 175 q 89 225 85 206 l 137 533 l 46 533 l 30 559 l 111 614 l 150 614 l 154 637 q 162 681 158 665 q 173 707 167 697 q 185 721 178 716 q 201 734 192 727 l 330 798 l 349 781 q 338 759 343 774 q 327 720 332 745 q 314 653 321 695 l 308 614 l 472 614 l 490 590 q 470 567 484 580 q 443 540 457 553 q 416 516 429 527 q 397 502 403 505 q 365 527 389 521 q 298 533 341 533 l 295 533 l 257 287 q 253 260 255 274 q 250 232 251 245 q 249 207 249 219 q 249 189 249 196 q 261 129 249 147 q 293 112 274 112 q 348 122 316 112 q 431 155 380 132 l 449 105 "},"W":{"x_min":77.3125,"x_max":1158.40625,"ha":1082,"o":"m 1152 805 q 1076 784 1098 793 q 1049 763 1053 775 l 807 40 q 789 15 802 26 q 761 -2 777 5 q 731 -13 746 -9 q 706 -20 716 -17 l 576 595 l 320 40 q 301 15 314 25 q 272 -1 288 5 q 241 -12 257 -8 q 213 -20 225 -17 l 157 758 q 138 785 155 774 q 77 805 120 796 l 84 855 l 390 855 l 384 805 q 335 797 353 802 q 309 785 318 791 q 298 772 300 779 q 297 758 296 765 l 335 262 l 600 855 l 664 855 l 792 262 l 962 763 q 959 777 965 771 q 940 788 952 783 q 910 797 928 793 q 872 805 893 801 l 878 855 l 1158 855 l 1152 805 "},"v":{"x_min":0.921875,"x_max":659,"ha":663,"o":"m 659 578 q 643 517 659 556 q 592 414 627 478 q 500 255 557 349 q 360 26 443 160 q 338 15 354 23 q 305 0 323 7 q 271 -17 287 -9 q 248 -28 255 -25 l 221 -2 q 202 122 213 55 q 178 255 190 190 q 154 374 166 320 q 132 459 142 428 q 120 489 127 478 q 108 506 114 499 q 95 513 101 512 q 83 515 89 515 q 66 513 76 515 q 44 507 55 510 q 17 499 32 504 l 0 544 q 62 574 29 559 q 125 604 95 590 q 178 626 154 617 q 212 635 202 635 q 244 615 232 635 q 271 548 257 596 q 284 498 276 531 q 299 424 291 465 q 315 340 307 383 q 330 259 323 297 q 341 194 336 222 q 346 158 345 167 q 421 289 392 232 q 466 388 450 347 q 488 454 483 429 q 494 489 494 480 q 456 523 494 523 q 433 520 445 523 q 407 512 422 518 l 392 556 q 444 582 413 568 q 504 608 474 596 q 561 627 534 620 q 603 635 588 635 q 643 622 627 634 q 659 578 659 610 "},">":{"x_min":17.640625,"x_max":556.140625,"ha":600,"o":"m 556 430 q 548 410 552 421 q 539 388 543 399 q 530 366 535 376 q 521 348 525 356 l 34 163 l 17 185 q 24 204 20 192 q 34 229 29 216 q 44 254 39 243 q 51 272 48 266 l 392 401 l 80 533 l 70 562 q 104 593 85 576 q 143 624 122 611 l 539 457 l 556 430 "},"s":{"x_min":-13.359375,"x_max":534.078125,"ha":533,"o":"m 534 572 q 507 538 522 556 q 478 504 493 519 q 452 477 464 488 q 433 467 439 467 q 408 481 422 467 q 379 512 395 495 q 342 542 362 528 q 298 557 322 557 q 240 537 260 557 q 221 485 221 518 q 248 430 221 453 q 331 378 276 406 q 385 347 358 364 q 433 308 412 330 q 468 259 455 287 q 481 195 481 231 q 467 135 481 164 q 432 82 454 106 q 380 37 409 57 q 318 2 350 16 q 253 -20 286 -12 q 190 -28 219 -28 q 110 -17 147 -28 q 45 9 72 -6 q 2 43 17 25 q -13 76 -13 62 q -3 106 -13 85 q 19 148 6 127 q 45 186 32 170 q 66 202 58 202 q 78 191 72 202 q 94 164 85 180 q 116 129 103 148 q 145 94 129 110 q 184 67 162 78 q 234 57 206 57 q 305 81 279 57 q 331 145 331 106 q 319 188 331 169 q 288 225 307 208 q 245 257 269 243 q 195 285 220 272 q 135 322 159 303 q 98 360 112 340 q 78 400 84 379 q 73 442 73 421 q 98 520 73 485 q 161 581 123 556 q 245 621 199 607 q 334 635 291 635 q 398 626 370 635 q 449 607 426 617 q 493 586 473 596 q 534 572 513 576 "},"B":{"x_min":-4.859375,"x_max":695,"ha":739,"o":"m 695 277 q 666 156 695 211 q 589 62 638 101 q 474 1 540 23 q 333 -21 408 -21 q 299 -20 320 -21 q 256 -17 279 -19 q 207 -14 233 -16 q 157 -10 181 -12 q 35 0 99 -6 l -4 0 l 0 50 q 65 70 42 59 q 90 91 88 81 l 187 792 q 136 784 159 788 q 91 775 113 780 l 91 832 q 236 862 154 849 q 412 875 317 875 q 621 829 551 875 q 691 705 691 784 q 647 576 691 633 q 520 489 603 520 q 591 465 559 484 q 646 418 623 446 q 682 354 669 390 q 695 277 695 318 m 372 430 q 326 427 342 430 q 293 421 309 424 l 247 91 q 257 76 245 84 q 306 61 279 65 q 361 57 333 57 q 432 72 401 57 q 484 114 463 88 q 517 177 506 141 q 528 254 528 213 q 520 319 528 288 q 494 375 512 351 q 445 415 475 400 q 372 430 416 430 m 384 804 l 364 804 q 346 803 355 804 l 304 501 l 326 501 q 397 510 362 501 q 461 539 433 519 q 506 591 489 559 q 524 669 524 623 q 510 733 524 707 q 477 774 497 758 q 432 797 456 790 q 384 804 407 804 "},"?":{"x_min":99.78125,"x_max":605,"ha":595,"o":"m 351 113 q 342 66 351 90 q 318 23 334 42 q 278 -8 302 4 q 224 -21 255 -21 q 162 0 182 -21 q 143 56 143 21 q 151 100 143 77 q 177 143 160 123 q 217 174 193 162 q 269 187 240 187 q 330 166 310 187 q 351 113 351 145 m 605 804 q 585 702 605 747 q 536 621 566 658 q 471 552 507 584 q 404 487 436 520 q 350 418 373 454 q 321 338 327 382 l 313 279 q 280 260 300 269 q 242 245 259 251 l 226 260 l 230 344 q 247 423 231 387 q 286 494 263 460 q 334 559 308 528 q 383 623 361 591 q 420 690 405 655 q 435 764 435 724 q 429 816 435 792 q 413 858 424 840 q 385 885 401 875 q 348 895 369 895 q 308 882 325 895 q 281 849 291 870 q 269 800 272 828 q 273 739 267 772 q 238 726 258 732 q 196 713 217 719 q 154 703 174 707 q 118 697 133 699 l 99 724 q 122 811 99 767 q 185 890 144 854 q 283 947 226 925 q 411 970 341 970 q 494 957 457 970 q 555 921 530 944 q 592 868 579 899 q 605 804 605 838 "},"H":{"x_min":-5.421875,"x_max":925.09375,"ha":886,"o":"m 435 805 q 367 784 391 795 q 342 763 343 772 l 305 488 l 630 488 l 668 763 q 651 783 670 771 q 588 805 632 795 l 594 855 l 925 855 l 918 805 q 850 784 874 795 q 826 763 827 772 l 733 90 q 751 70 732 82 q 814 49 770 59 l 808 0 l 478 0 l 484 49 q 552 70 529 59 q 576 90 575 81 l 619 407 l 293 407 l 250 90 q 268 70 249 82 q 331 49 286 59 l 324 0 l -5 0 l 1 49 q 68 70 45 59 q 93 90 92 81 l 185 763 q 168 783 187 771 q 105 805 149 795 l 111 855 l 442 855 l 435 805 "},"c":{"x_min":48,"x_max":614.25,"ha":592,"o":"m 614 558 q 580 526 600 544 q 540 492 560 508 q 501 464 519 475 q 472 454 483 454 q 450 467 461 454 q 426 496 439 480 q 396 525 412 512 q 361 539 380 539 q 295 513 324 539 q 247 448 267 488 q 218 359 228 409 q 208 263 208 310 q 215 184 208 219 q 235 126 222 150 q 266 89 248 102 q 305 77 283 77 q 393 103 342 77 q 517 190 444 130 q 525 179 520 186 q 535 165 530 172 q 545 151 541 157 q 551 142 549 144 q 454 61 498 93 q 372 8 410 28 q 302 -19 334 -11 q 239 -28 269 -28 q 177 -16 210 -28 q 114 23 143 -4 q 66 99 85 52 q 48 218 48 147 q 57 310 48 263 q 88 401 66 357 q 143 487 109 446 q 228 561 178 527 q 272 586 247 573 q 326 610 297 599 q 384 628 354 621 q 442 635 414 635 q 496 625 472 635 q 539 602 519 615 q 577 577 560 589 q 614 558 595 564 "},"&":{"x_min":42.484375,"x_max":928.484375,"ha":877,"o":"m 390 766 q 388 693 385 731 q 403 615 392 655 q 458 657 436 635 q 496 702 481 679 q 520 748 512 725 q 531 792 528 771 q 522 868 539 841 q 475 896 505 896 q 443 885 457 896 q 418 858 429 875 q 401 816 408 840 q 390 766 394 792 m 343 77 q 414 88 379 77 q 480 119 448 99 q 429 185 455 149 q 380 260 404 221 q 334 342 356 300 q 294 428 311 384 q 235 343 254 385 q 210 254 217 301 q 213 173 204 207 q 242 118 223 139 q 289 86 262 96 q 343 77 316 77 m 928 507 q 908 484 919 496 q 886 459 897 471 q 865 437 875 447 q 846 421 854 427 q 798 442 824 432 q 752 454 773 452 q 763 412 762 434 q 760 364 764 390 q 729 269 754 319 q 663 171 704 219 q 684 147 674 158 q 705 125 695 135 q 767 88 733 96 q 833 89 800 81 l 836 40 q 777 15 808 27 q 718 -3 746 4 q 670 -16 691 -11 q 643 -21 650 -21 q 599 0 628 -21 q 535 57 571 20 q 419 0 480 21 q 293 -21 358 -21 q 177 -4 227 -21 q 94 45 126 12 q 49 127 62 78 q 46 240 37 176 q 107 383 55 312 q 261 526 160 454 q 242 628 247 578 q 244 727 237 678 q 277 829 251 782 q 341 910 303 875 q 427 963 379 944 q 525 983 474 983 q 605 969 573 983 q 656 931 637 955 q 681 878 675 908 q 683 814 688 848 q 657 743 678 779 q 602 672 635 707 q 531 606 570 637 q 451 549 491 574 l 430 536 q 508 382 461 458 q 605 241 555 306 q 643 336 636 289 q 642 389 647 366 q 626 429 637 412 q 599 454 615 445 q 564 463 583 463 l 549 486 q 561 498 553 490 q 578 513 569 505 q 596 527 587 521 q 611 537 604 534 l 913 537 l 928 507 "},"I":{"x_min":8.8125,"x_max":455.09375,"ha":429,"o":"m 448 805 q 381 784 404 795 q 356 763 357 772 l 263 90 q 281 70 262 82 q 344 49 299 59 l 337 0 l 8 0 l 15 49 q 82 70 58 59 q 107 90 105 81 l 198 763 q 181 783 200 771 q 118 805 162 795 l 125 855 l 455 855 l 448 805 "},"G":{"x_min":41,"x_max":762.53125,"ha":760,"o":"m 758 371 q 705 345 721 360 q 687 315 689 331 q 680 268 684 297 q 673 210 677 240 q 666 153 670 179 q 662 114 663 127 q 566 47 610 73 q 484 5 522 21 q 414 -15 447 -9 q 355 -21 382 -21 q 236 3 293 -21 q 136 73 179 27 q 66 184 92 118 q 41 331 41 249 q 55 458 41 395 q 96 577 70 520 q 160 683 123 634 q 243 770 198 732 q 303 814 271 794 q 372 847 335 833 q 451 867 409 860 q 542 875 493 875 q 596 870 566 875 q 655 856 626 865 q 711 835 685 848 q 755 806 738 822 q 754 793 758 803 q 743 768 751 783 q 725 738 736 754 q 704 706 715 721 q 684 679 694 690 q 668 661 674 667 l 628 670 q 601 717 616 695 q 565 755 586 739 q 519 780 545 771 q 458 790 492 790 q 395 773 428 790 q 327 724 361 757 q 278 657 301 699 q 238 564 255 614 q 212 461 221 514 q 203 360 203 407 q 221 235 203 287 q 270 151 240 184 q 336 102 299 118 q 408 87 372 87 q 458 92 431 87 q 508 116 485 98 l 537 315 q 535 329 538 322 q 518 342 532 335 q 474 356 504 349 q 394 371 445 363 l 399 420 l 762 420 l 758 371 "},"(":{"x_min":63,"x_max":507.3125,"ha":429,"o":"m 507 1037 q 420 946 461 999 q 344 821 379 892 q 284 659 310 749 q 242 461 257 569 q 226 271 228 362 q 235 100 224 180 q 272 -45 246 21 q 338 -163 297 -112 l 298 -214 q 181 -106 231 -173 q 103 45 132 -39 q 65 231 73 131 q 73 440 57 332 q 125 652 88 551 q 214 836 161 752 q 335 984 267 920 q 481 1088 402 1049 l 507 1037 "},"`":{"x_min":139.03125,"x_max":391.328125,"ha":411,"o":"m 391 715 q 362 700 377 707 q 334 691 346 693 l 139 937 l 166 971 q 193 977 174 973 q 236 984 213 980 q 278 991 258 988 q 307 995 298 995 l 391 715 "},"U":{"x_min":110,"x_max":905.34375,"ha":860,"o":"m 898 805 q 834 784 855 795 q 812 763 813 772 l 753 347 q 708 189 741 258 q 628 73 676 120 q 522 3 581 27 q 395 -21 462 -21 q 289 -4 339 -21 q 201 45 239 12 q 141 125 163 78 q 119 236 119 173 q 125 314 119 272 l 188 763 q 171 783 190 771 q 110 805 153 795 l 116 855 l 442 855 l 435 805 q 368 784 392 795 q 343 763 345 772 l 284 346 q 279 306 281 326 q 278 269 278 287 q 319 126 278 174 q 445 79 360 79 q 522 97 489 79 q 579 147 556 115 q 618 223 603 180 q 639 318 632 267 l 701 763 q 698 772 702 767 q 686 783 695 778 q 662 794 677 789 q 625 805 647 800 l 632 855 l 905 855 l 898 805 "},"F":{"x_min":-5.421875,"x_max":692.46875,"ha":646,"o":"m 552 475 q 536 450 545 463 q 517 424 526 436 q 498 402 507 412 q 482 386 489 392 q 462 403 473 396 q 438 415 452 411 q 404 421 423 419 q 360 424 385 424 l 295 424 l 250 90 q 254 82 249 86 q 269 72 258 77 q 301 61 281 67 q 350 49 320 55 l 343 0 l -5 0 l 1 49 q 68 70 45 59 q 93 90 92 81 l 185 763 q 168 783 187 771 q 105 805 149 795 l 111 855 l 672 855 l 692 833 q 683 789 689 815 q 670 735 677 763 q 655 682 663 707 q 642 645 648 658 l 594 645 q 592 741 600 708 q 560 774 583 774 l 343 774 l 305 499 l 533 499 l 552 475 "},"r":{"x_min":17.5625,"x_max":605.328125,"ha":567,"o":"m 605 576 q 591 555 599 569 q 574 526 583 542 q 554 494 564 510 q 535 464 544 478 q 519 442 526 450 q 507 434 511 434 q 483 442 494 434 q 461 460 471 450 q 440 477 450 469 q 420 486 430 486 q 380 469 402 486 q 337 421 359 452 q 296 349 315 391 q 262 259 276 308 q 238 152 247 208 q 231 42 229 96 q 198 27 220 37 q 151 7 175 18 q 107 -13 128 -3 q 77 -28 86 -23 l 50 -2 q 78 142 65 70 q 101 278 91 214 q 116 393 111 341 q 122 474 122 444 q 119 499 122 490 q 113 513 117 508 q 104 518 109 517 q 94 520 99 520 q 76 517 87 520 q 55 512 66 515 q 29 504 43 508 l 17 549 q 82 577 46 562 q 154 605 119 592 q 217 626 189 618 q 258 635 245 635 q 273 631 267 635 q 283 621 279 628 q 288 600 287 613 q 290 567 290 587 q 288 547 290 559 q 285 519 287 534 q 281 488 283 503 q 277 459 279 472 q 338 547 310 513 q 392 601 367 582 q 440 627 417 620 q 484 635 462 635 q 511 628 496 635 q 541 611 525 621 q 574 592 557 602 q 605 576 590 582 "},":":{"x_min":30,"x_max":302,"ha":324,"o":"m 302 577 q 293 531 302 555 q 269 488 285 507 q 230 456 253 469 q 176 444 206 444 q 113 465 133 444 q 94 520 94 486 q 102 565 94 542 q 128 608 111 588 q 168 639 144 627 q 221 652 191 652 q 281 631 261 652 q 302 577 302 610 m 238 113 q 229 66 238 90 q 205 23 221 42 q 165 -8 189 4 q 111 -21 142 -21 q 49 0 69 -21 q 30 56 30 21 q 38 100 30 77 q 64 143 47 123 q 104 174 80 162 q 156 187 127 187 q 217 166 197 187 q 238 113 238 145 "},"x":{"x_min":-29.84375,"x_max":646.34375,"ha":642,"o":"m 630 68 q 573 30 601 48 q 520 0 545 13 q 474 -20 495 -13 q 435 -28 452 -28 q 397 -10 416 -28 q 359 36 378 6 q 323 104 341 65 q 287 186 305 143 q 228 103 260 149 q 159 3 196 58 q 123 -1 147 1 q 74 -10 100 -5 q 26 -19 49 -15 q -9 -28 3 -24 l -29 1 q 35 60 0 26 q 109 129 71 93 q 183 203 147 165 q 251 276 220 241 q 215 367 233 324 q 180 445 197 411 q 146 499 162 479 q 115 520 130 520 q 94 517 109 520 q 65 511 80 514 q 27 502 48 507 l 13 549 q 73 578 42 563 q 132 606 104 594 q 183 627 160 619 q 216 635 205 635 q 252 614 233 635 q 289 560 270 594 q 327 482 307 526 q 365 390 346 438 q 406 444 387 418 q 439 490 425 470 q 460 525 453 510 q 468 543 468 539 q 452 563 468 557 q 392 565 436 569 l 389 613 q 437 621 411 618 q 489 628 463 625 q 536 633 514 631 q 573 635 558 635 q 629 624 613 635 q 646 599 646 613 q 583 501 646 573 q 399 305 520 430 q 433 224 416 263 q 466 156 450 185 q 497 109 482 126 q 526 92 512 92 q 565 96 542 92 q 613 114 588 101 l 630 68 "},"*":{"x_min":-4.0625,"x_max":529.015625,"ha":503,"o":"m 301 827 l 455 952 l 471 938 q 493 917 482 928 q 515 896 505 906 q 529 880 524 885 l 518 842 l 325 770 l 484 705 q 479 680 483 697 q 470 647 475 664 q 460 613 465 629 q 453 590 455 598 l 417 577 l 287 711 l 293 522 q 270 511 285 518 q 239 498 255 505 q 208 486 223 492 q 186 480 193 481 l 162 503 l 224 710 l 70 585 q 53 600 64 590 q 31 621 42 610 q 9 642 19 632 q -4 657 0 652 l 7 695 l 200 767 l 40 832 l 46 857 q 55 891 50 873 q 64 924 60 908 q 72 947 69 940 l 107 961 l 238 826 l 232 1016 q 254 1026 240 1020 q 285 1039 269 1033 q 316 1051 301 1046 q 339 1059 331 1056 l 363 1034 l 301 827 "},"V":{"x_min":84.09375,"x_max":916.953125,"ha":845,"o":"m 910 805 q 840 788 865 796 q 806 760 815 779 l 474 55 q 451 28 467 41 q 416 6 435 16 q 376 -9 396 -3 q 340 -20 356 -15 l 162 760 q 140 789 158 778 q 84 805 123 800 l 90 855 l 411 855 l 404 805 q 336 791 354 801 q 323 762 318 781 l 448 192 l 713 760 q 706 789 722 780 q 639 805 689 798 l 646 855 l 916 855 l 910 805 "},"h":{"x_min":48.5,"x_max":710.65625,"ha":730,"o":"m 710 74 q 645 37 679 56 q 579 4 611 19 q 519 -18 547 -9 q 472 -28 492 -28 q 437 -6 453 -28 q 422 51 422 14 q 426 92 422 63 q 436 158 430 121 q 449 237 442 195 q 462 318 456 280 q 472 387 468 356 q 477 434 477 419 q 474 469 477 455 q 468 491 472 483 q 458 502 464 499 q 443 506 451 506 q 418 500 434 506 q 381 482 401 495 q 339 448 361 470 q 298 394 317 427 q 266 313 279 362 q 244 204 253 265 q 234 140 238 166 q 230 96 231 115 q 228 65 228 78 q 228 42 228 53 q 198 27 220 37 q 152 7 176 18 q 106 -13 127 -3 q 76 -28 84 -23 l 48 -2 q 63 86 54 34 q 82 200 72 138 q 103 329 92 261 q 124 464 114 397 q 144 596 135 532 q 160 714 153 659 q 171 809 167 768 q 176 872 176 850 q 173 897 176 887 q 167 910 171 906 q 158 916 163 914 q 148 917 153 917 q 129 914 141 917 q 105 908 117 911 q 74 899 91 904 l 64 946 q 129 973 92 959 q 200 1001 165 988 q 264 1022 235 1014 q 306 1031 293 1031 q 338 1018 325 1031 q 351 975 351 1006 q 347 923 351 959 q 337 842 343 888 q 323 745 330 796 q 307 645 315 693 q 293 555 300 596 q 283 490 287 514 q 432 602 362 569 q 563 635 503 635 q 601 630 584 635 q 628 613 617 625 q 645 579 639 601 q 651 525 651 558 q 646 469 651 502 q 636 399 642 436 q 622 324 629 362 q 608 250 615 286 q 598 186 602 215 q 594 137 594 156 q 600 106 594 114 q 618 97 606 97 q 652 103 637 97 q 693 119 667 109 l 710 74 "},"0":{"x_min":22,"x_max":608,"ha":632,"o":"m 445 549 q 437 641 445 602 q 417 703 430 679 q 388 738 405 727 q 350 750 371 750 q 288 723 315 750 q 244 653 262 696 q 213 556 225 610 q 195 449 201 503 q 185 348 188 395 q 183 268 183 300 q 206 116 183 164 q 280 69 230 69 q 336 92 311 69 q 379 154 361 115 q 410 243 397 193 q 430 346 422 293 q 441 452 438 400 q 445 549 445 505 m 608 531 q 587 339 608 430 q 515 160 567 247 q 465 89 493 122 q 403 31 437 56 q 329 -6 368 7 q 244 -21 289 -21 q 152 3 193 -21 q 81 70 110 28 q 37 168 53 113 q 22 286 22 224 q 26 386 22 339 q 41 477 31 433 q 69 564 52 521 q 110 652 86 607 q 159 724 131 690 q 223 783 188 758 q 299 823 258 808 q 385 838 339 838 q 473 816 433 838 q 544 754 514 794 q 591 658 574 715 q 608 531 608 601 "},".":{"x_min":30,"x_max":238,"ha":324,"o":"m 238 113 q 229 66 238 90 q 205 23 221 42 q 165 -8 189 4 q 111 -21 142 -21 q 49 0 69 -21 q 30 56 30 21 q 38 100 30 77 q 64 143 47 123 q 104 174 80 162 q 156 187 127 187 q 217 166 197 187 q 238 113 238 145 "},"@":{"x_min":37.9375,"x_max":1106.328125,"ha":1150,"o":"m 641 241 q 650 305 644 269 q 662 377 656 341 q 674 447 668 414 q 684 501 680 479 q 648 528 666 517 q 611 539 630 539 q 561 525 583 539 q 521 489 539 511 q 490 438 503 467 q 468 378 477 409 q 455 315 459 346 q 451 257 451 283 q 456 190 451 219 q 470 143 461 162 q 488 115 478 125 q 509 106 499 106 q 564 140 531 106 q 641 241 598 174 m 1098 372 q 1067 260 1090 313 q 1012 164 1045 208 q 942 84 980 119 q 866 23 904 48 q 792 -14 828 -1 q 730 -28 757 -28 q 706 -21 720 -28 q 679 1 693 -15 q 655 48 666 18 q 640 126 644 79 q 599 69 622 97 q 552 20 577 41 q 501 -14 526 -1 q 451 -28 475 -28 q 401 -15 428 -28 q 351 25 375 -2 q 312 98 328 54 q 297 206 297 143 q 309 311 297 260 q 347 409 322 362 q 408 497 372 456 q 493 571 445 538 q 536 594 512 583 q 586 615 560 606 q 638 629 612 624 q 685 635 663 635 q 739 622 713 635 q 788 597 765 610 q 831 617 809 607 q 870 635 853 626 l 892 590 q 873 573 880 581 q 859 556 865 566 q 848 532 853 546 q 839 495 844 518 q 821 400 829 446 q 807 316 813 354 q 798 249 801 278 q 796 204 796 219 q 807 132 796 154 q 835 110 819 110 q 870 125 852 110 q 904 170 888 140 q 934 244 920 200 q 956 345 948 288 q 954 546 973 460 q 890 689 935 632 q 780 774 845 746 q 639 803 714 803 q 531 785 583 803 q 434 737 480 768 q 351 664 389 706 q 283 570 313 621 q 234 461 254 518 q 205 342 214 403 q 202 191 193 260 q 235 69 211 123 q 298 -25 260 14 q 382 -93 335 -66 q 481 -134 428 -120 q 589 -148 534 -148 q 697 -133 644 -148 q 798 -98 751 -119 q 882 -55 845 -77 q 941 -15 919 -32 l 962 -78 q 894 -134 936 -103 q 797 -191 852 -165 q 676 -236 743 -218 q 535 -254 610 -254 q 388 -236 458 -254 q 259 -183 318 -218 q 155 -99 200 -148 q 80 13 109 -49 q 42 152 52 76 q 44 315 32 228 q 84 465 55 391 q 157 603 113 538 q 259 723 201 668 q 385 819 316 779 q 530 881 453 859 q 691 904 608 904 q 869 868 787 904 q 1009 765 952 833 q 1091 598 1066 697 q 1098 372 1116 499 "},"f":{"x_min":-67.828125,"x_max":689.078125,"ha":446,"o":"m 689 946 q 652 918 674 936 q 606 882 629 900 q 563 852 583 865 q 535 840 543 840 q 514 852 524 840 q 492 880 503 864 q 466 907 480 895 q 434 920 452 920 q 386 893 406 920 q 353 825 366 866 q 333 737 340 785 q 320 645 325 689 l 316 614 l 485 614 l 503 590 q 483 567 497 580 q 456 540 470 553 q 427 516 441 527 q 407 502 414 505 q 378 527 400 521 q 314 533 357 533 l 307 533 l 261 131 q 222 -13 252 56 q 151 -142 193 -82 q 60 -250 109 -202 q -40 -329 10 -298 l -67 -271 q -6 -213 -33 -252 q 41 -125 21 -174 q 75 -18 62 -75 q 95 94 89 38 l 146 533 l 51 533 l 35 559 l 124 614 l 155 614 q 174 718 162 668 q 207 813 187 768 q 258 897 227 858 q 331 967 288 936 q 406 1012 368 994 q 487 1031 445 1031 q 552 1019 520 1031 q 611 992 584 1007 q 658 963 638 977 q 689 946 678 949 "},";":{"x_min":-8.765625,"x_max":303,"ha":324,"o":"m 303 577 q 294 531 303 555 q 270 488 286 507 q 231 456 254 469 q 177 444 207 444 q 114 465 134 444 q 94 520 94 486 q 102 565 94 542 q 128 608 111 588 q 168 639 145 627 q 221 652 192 652 q 282 631 262 652 q 303 577 303 610 m 254 79 q 244 19 254 51 q 217 -43 234 -11 q 177 -107 200 -75 q 129 -166 154 -138 q 79 -216 105 -193 q 29 -253 53 -238 l -8 -219 q 68 -109 42 -164 q 95 -15 95 -55 q 90 9 95 -2 q 77 32 86 22 q 53 47 67 42 q 19 50 39 52 l 16 103 q 38 117 23 109 q 69 133 52 125 q 107 149 87 141 q 145 162 126 156 q 179 171 164 168 q 205 175 195 175 q 226 160 217 168 q 241 141 235 152 q 250 115 247 130 q 254 79 254 100 "},"i":{"x_min":37.578125,"x_max":380.484375,"ha":386,"o":"m 364 74 q 299 36 333 55 q 235 4 266 18 q 177 -19 204 -10 q 132 -28 151 -28 q 92 -6 108 -28 q 77 51 77 14 q 81 106 77 71 q 93 182 86 140 q 108 268 100 223 q 123 353 116 313 q 135 425 130 394 q 140 474 140 457 q 137 499 140 490 q 132 513 135 508 q 123 518 129 517 q 112 520 118 520 q 96 517 106 520 q 75 512 85 515 q 49 504 63 508 l 37 549 q 102 577 66 562 q 172 605 137 592 q 234 626 206 618 q 274 635 262 635 q 304 622 293 635 q 315 577 315 609 q 310 523 315 558 q 297 445 305 488 q 282 357 290 403 q 266 269 273 311 q 253 191 258 226 q 249 137 249 156 q 253 106 249 116 q 269 97 257 97 q 288 98 279 97 q 307 102 297 99 q 327 109 316 105 q 352 119 337 113 l 364 74 m 380 855 q 372 816 380 836 q 349 779 364 796 q 312 751 334 762 q 261 740 290 740 q 208 757 225 740 q 191 797 191 774 q 199 836 191 815 q 222 873 207 856 q 260 902 238 890 q 310 914 282 914 q 363 896 346 914 q 380 855 380 878 "},"6":{"x_min":39,"x_max":593,"ha":632,"o":"m 333 437 q 274 417 306 437 q 209 364 242 398 q 203 309 205 336 q 202 253 202 281 q 209 166 202 202 q 231 109 217 131 q 265 77 245 87 q 307 67 284 67 q 346 78 329 67 q 377 108 363 89 q 399 151 390 127 q 414 202 409 176 q 423 254 420 227 q 426 301 426 280 q 417 369 426 343 q 396 411 409 396 q 366 431 382 426 q 333 437 349 437 m 593 786 q 454 741 514 771 q 350 669 394 711 q 276 575 305 627 q 228 462 246 522 q 312 515 271 497 q 389 533 353 533 q 471 518 435 533 q 532 475 507 503 q 571 411 557 448 q 585 327 585 373 q 575 250 585 291 q 547 171 566 210 q 503 98 529 133 q 442 36 476 63 q 366 -5 408 10 q 277 -21 325 -21 q 184 -1 228 -21 q 108 52 141 17 q 57 136 76 87 q 39 244 39 185 q 54 387 39 317 q 101 521 70 457 q 179 639 133 584 q 286 737 225 694 q 421 808 347 779 q 584 847 496 836 l 593 786 "},"A":{"x_min":-33.90625,"x_max":768.421875,"ha":810,"o":"m 251 291 l 165 95 q 176 65 156 74 q 246 49 196 56 l 240 0 l -33 0 l -27 49 q 40 66 16 57 q 73 95 64 75 l 390 817 q 426 842 407 830 q 466 863 446 854 q 506 880 486 873 q 543 893 526 887 l 697 95 q 702 78 699 86 q 714 65 706 71 q 735 56 722 60 q 768 49 748 52 l 762 0 l 449 0 l 456 49 q 524 63 505 52 q 539 95 543 73 l 503 291 l 251 291 m 487 373 l 426 693 l 287 373 l 487 373 "},"n":{"x_min":21.203125,"x_max":715.96875,"ha":732,"o":"m 715 74 q 651 37 685 56 q 586 4 617 19 q 527 -18 554 -9 q 483 -28 500 -28 q 444 -6 460 -28 q 429 51 429 14 q 433 92 429 63 q 443 158 437 121 q 457 237 449 195 q 470 318 464 279 q 480 387 476 356 q 485 433 485 418 q 477 489 485 473 q 449 505 470 505 q 423 500 440 505 q 387 481 407 494 q 346 446 368 467 q 305 393 325 425 q 274 315 285 360 q 251 203 262 269 q 242 150 245 173 q 237 109 239 128 q 235 74 235 90 q 235 42 235 58 q 204 27 226 37 q 158 7 182 18 q 112 -13 133 -3 q 82 -28 90 -23 l 55 -2 q 73 91 64 43 q 90 188 82 140 q 105 281 98 236 q 116 364 112 326 q 124 431 121 402 q 127 476 127 460 q 125 501 127 492 q 120 514 123 510 q 112 520 116 519 q 101 522 107 522 q 84 519 95 522 q 61 513 73 516 q 34 504 49 509 l 21 551 q 87 578 49 563 q 160 605 124 593 q 223 626 195 618 q 262 635 251 635 q 277 631 271 635 q 287 620 283 628 q 292 597 291 612 q 294 558 294 582 q 292 525 294 544 q 289 490 291 507 q 435 599 363 564 q 568 635 507 635 q 606 630 589 635 q 634 613 623 626 q 651 580 645 601 q 658 527 658 559 q 653 470 658 503 q 642 401 649 438 q 629 325 636 364 q 615 250 621 286 q 604 186 608 215 q 600 137 600 156 q 606 106 600 114 q 624 97 612 97 q 655 102 640 97 q 698 119 670 108 l 715 74 "},"O":{"x_min":51,"x_max":784,"ha":795,"o":"m 622 512 q 611 619 622 569 q 579 706 600 669 q 526 763 558 742 q 454 785 495 785 q 379 765 413 785 q 318 712 345 745 q 272 636 292 679 q 240 546 252 593 q 221 451 227 499 q 215 360 215 403 q 225 244 215 297 q 258 153 236 191 q 309 94 279 115 q 380 73 340 73 q 458 93 423 73 q 519 148 493 114 q 566 227 546 182 q 597 321 585 273 q 616 420 610 370 q 622 512 622 469 m 784 525 q 774 427 784 476 q 748 329 765 377 q 707 236 731 281 q 651 152 682 191 q 587 84 623 116 q 512 29 552 52 q 428 -7 472 6 q 339 -21 385 -21 q 217 6 270 -21 q 126 82 163 34 q 70 194 89 130 q 51 328 51 257 q 59 428 51 379 q 83 522 67 476 q 121 611 99 569 q 170 690 143 653 q 233 762 198 728 q 309 820 267 795 q 397 860 350 845 q 498 875 444 875 q 624 847 571 875 q 713 771 678 819 q 766 659 749 723 q 784 525 784 596 "},"3":{"x_min":2.09375,"x_max":569,"ha":632,"o":"m 569 678 q 557 610 569 641 q 524 552 545 578 q 474 506 502 526 q 413 473 445 486 q 473 452 447 469 q 517 411 499 436 q 543 355 534 386 q 552 290 552 323 q 526 169 552 226 q 456 70 500 113 q 352 3 411 28 q 223 -21 292 -21 q 171 -13 200 -21 q 112 8 142 -6 q 54 43 82 22 q 2 91 25 64 l 38 157 q 134 92 88 110 q 226 75 179 75 q 291 89 261 75 q 342 129 320 104 q 375 191 363 155 q 388 272 388 228 q 379 333 388 307 q 354 375 370 359 q 317 400 338 392 q 271 407 295 407 l 257 407 q 247 407 252 407 q 236 405 242 406 q 221 403 230 405 l 217 464 q 357 536 306 487 q 408 668 408 586 q 391 735 408 711 q 339 759 375 759 q 305 751 321 759 q 279 729 290 743 q 262 694 268 714 q 258 649 257 674 q 226 634 245 642 q 187 619 207 626 q 148 608 167 613 q 113 603 128 603 l 97 644 q 111 685 100 663 q 142 728 123 706 q 187 769 161 749 q 242 804 212 789 q 306 827 273 818 q 377 837 340 837 q 468 823 431 837 q 527 788 505 810 q 559 737 549 766 q 569 678 569 708 "},"]":{"x_min":-58.328125,"x_max":466.625,"ha":458,"o":"m 283 -228 l -33 -228 l -58 -203 q -51 -184 -55 -195 q -41 -163 -46 -173 q -31 -143 -36 -152 q -24 -130 -27 -134 l 153 -130 l 310 988 l 138 988 l 113 1010 q 119 1028 115 1018 q 128 1049 123 1038 q 138 1069 133 1059 q 145 1084 142 1078 l 466 1084 l 283 -228 "},"m":{"x_min":17.5625,"x_max":1026.296875,"ha":1060,"o":"m 1026 74 q 961 37 995 56 q 896 4 927 19 q 838 -18 865 -9 q 793 -28 811 -28 q 773 -22 782 -28 q 757 -6 764 -17 q 745 18 749 3 q 741 51 741 33 q 745 91 741 63 q 755 155 749 118 q 769 233 761 191 q 783 315 777 275 q 793 389 789 354 q 798 447 798 424 q 790 491 798 477 q 771 505 783 505 q 751 500 764 505 q 721 485 738 496 q 685 455 705 473 q 647 407 666 436 q 626 369 635 389 q 610 324 617 349 q 597 269 603 300 q 585 200 591 239 q 574 100 576 138 q 573 43 571 62 q 541 28 563 38 q 495 7 519 18 q 448 -12 470 -2 q 417 -27 426 -22 l 390 -1 q 418 136 405 67 q 441 265 431 205 q 457 372 451 325 q 463 444 463 419 q 455 491 463 477 q 433 505 448 505 q 415 500 427 505 q 387 485 404 496 q 351 455 370 474 q 311 408 331 437 q 290 370 299 391 q 272 324 280 350 q 258 268 265 299 q 246 200 252 238 q 233 100 236 138 q 231 43 229 62 q 200 28 222 38 q 153 7 178 18 q 107 -12 129 -2 q 77 -27 86 -22 l 50 -1 q 77 142 65 70 q 100 279 90 215 q 116 394 110 343 q 122 475 122 446 q 119 499 122 490 q 114 514 117 509 q 105 520 110 519 q 95 521 100 521 q 77 519 88 521 q 55 513 67 516 q 28 504 42 509 l 17 551 q 82 578 46 563 q 152 605 118 593 q 214 626 187 618 q 255 635 242 635 q 272 631 265 635 q 283 619 279 628 q 289 596 287 611 q 291 557 291 580 q 289 527 291 546 q 286 490 287 508 q 360 560 325 532 q 426 604 394 588 q 485 628 457 621 q 541 635 513 635 q 583 625 566 635 q 612 600 601 616 q 628 564 623 584 q 633 521 633 543 q 632 510 633 516 q 632 497 632 505 q 704 563 671 536 q 765 605 737 590 q 819 628 793 621 q 870 635 844 635 q 907 628 890 635 q 938 607 925 622 q 958 570 951 593 q 966 515 966 548 q 961 456 966 489 q 951 388 957 424 q 938 316 945 352 q 925 246 931 279 q 915 184 919 212 q 911 137 911 156 q 917 106 911 114 q 936 99 924 99 q 972 104 955 99 q 1017 120 989 109 l 1026 74 "},"9":{"x_min":55.859375,"x_max":615,"ha":632,"o":"m 312 386 q 383 406 351 386 q 444 458 416 426 q 450 577 450 513 q 443 661 450 628 q 424 715 436 695 q 395 743 412 735 q 360 752 378 752 q 295 730 321 752 q 254 674 269 708 q 232 600 238 641 q 226 522 226 559 q 234 457 226 483 q 254 415 242 431 q 282 392 267 399 q 312 386 298 386 m 615 584 q 579 364 615 468 q 475 177 544 260 q 303 40 406 95 q 64 -29 200 -13 l 55 31 q 199 79 137 50 q 306 150 261 109 q 381 243 352 191 q 427 361 411 296 q 348 307 392 328 q 256 286 305 286 q 172 302 208 286 q 113 347 137 319 q 79 412 90 375 q 68 491 68 450 q 79 573 68 532 q 111 654 90 615 q 160 725 131 692 q 225 784 190 759 q 303 823 261 809 q 390 838 345 838 q 482 822 440 838 q 552 776 523 807 q 598 697 582 745 q 615 584 615 649 "},"l":{"x_min":59.421875,"x_max":350.65625,"ha":370,"o":"m 350 74 q 283 34 317 53 q 217 2 249 16 q 157 -19 185 -11 q 108 -28 130 -28 q 74 -7 89 -28 q 60 52 60 12 q 64 108 60 69 q 77 200 69 147 q 95 317 85 254 q 116 448 105 381 q 136 580 126 515 q 154 703 146 646 q 167 804 162 760 q 172 872 172 848 q 168 897 172 887 q 161 910 165 906 q 149 916 156 914 q 137 917 143 917 q 120 914 131 917 q 98 908 109 911 q 71 899 85 904 l 59 946 q 125 973 87 959 q 198 1001 162 988 q 262 1022 233 1014 q 304 1031 291 1031 q 334 1018 323 1031 q 346 975 346 1006 q 341 904 346 948 q 328 802 336 859 q 310 681 320 746 q 290 550 300 616 q 269 420 279 484 q 251 301 259 355 q 238 203 243 246 q 234 137 234 160 q 240 105 234 114 q 257 97 246 97 q 291 102 273 97 q 339 119 309 108 l 350 74 "},"8":{"x_min":22,"x_max":606,"ha":632,"o":"m 261 637 q 270 594 261 613 q 295 561 279 576 q 332 533 311 546 q 377 509 353 521 q 429 573 407 537 q 451 661 451 610 q 427 733 451 708 q 362 759 403 759 q 322 748 340 759 q 290 720 304 737 q 268 681 276 703 q 261 637 261 659 m 417 231 q 406 290 417 265 q 380 334 396 315 q 341 368 363 353 q 294 395 318 382 q 250 351 270 374 q 216 303 231 328 q 194 248 202 277 q 187 185 187 218 q 195 133 187 156 q 216 95 203 111 q 249 71 230 79 q 288 63 267 63 q 341 77 317 63 q 382 116 365 92 q 408 170 399 140 q 417 231 417 201 m 606 678 q 591 613 606 643 q 554 559 577 584 q 502 513 531 534 q 445 474 473 492 q 496 441 471 459 q 540 398 521 422 q 569 342 558 374 q 581 269 581 311 q 554 158 581 211 q 482 66 527 106 q 380 2 438 26 q 261 -21 323 -21 q 153 -5 199 -21 q 79 36 108 10 q 36 97 50 63 q 22 169 22 131 q 39 251 22 213 q 86 322 57 290 q 152 381 115 355 q 229 429 189 408 q 185 457 206 441 q 148 493 164 473 q 123 540 132 513 q 114 602 114 566 q 137 695 114 651 q 200 769 160 738 q 292 819 240 801 q 402 837 344 837 q 494 825 455 837 q 557 792 532 813 q 594 742 582 771 q 606 678 606 712 "},"p":{"x_min":-14.34375,"x_max":651,"ha":695,"o":"m 423 515 q 392 503 412 515 q 348 471 372 492 q 300 419 325 449 q 254 348 276 388 q 242 277 248 315 q 228 196 235 240 q 257 163 240 179 q 295 135 275 147 q 335 115 314 122 q 372 108 355 108 q 424 124 401 108 q 459 168 446 141 q 483 255 476 205 q 491 355 491 305 q 485 421 491 391 q 469 471 479 450 q 448 503 460 491 q 423 515 436 515 m 286 590 q 276 494 286 562 q 345 565 313 538 q 404 608 377 592 q 456 629 431 624 q 502 635 480 635 q 559 621 532 635 q 606 581 586 607 q 639 515 627 554 q 651 425 651 476 q 643 343 651 385 q 624 260 636 301 q 595 181 612 219 q 560 112 579 143 q 524 61 544 86 q 482 16 505 36 q 433 -15 459 -2 q 379 -28 407 -28 q 341 -18 362 -28 q 299 7 320 -9 q 254 47 277 23 q 212 99 232 70 l 196 4 q 178 -115 185 -65 q 168 -197 171 -164 q 166 -249 165 -230 q 170 -277 166 -268 q 137 -288 159 -280 q 90 -306 115 -296 q 43 -325 65 -316 q 12 -339 21 -334 l -14 -314 q -4 -255 -11 -294 q 11 -163 1 -216 q 32 -49 20 -111 q 54 75 43 12 q 76 201 66 139 q 95 317 87 263 q 108 411 103 370 q 113 474 113 452 q 111 499 113 490 q 103 512 108 508 q 93 518 98 517 q 81 520 88 520 q 65 517 75 520 q 43 511 54 515 q 18 503 31 508 l 6 549 q 73 578 36 563 q 146 606 111 594 q 209 626 180 618 q 250 635 237 635 q 277 625 267 635 q 286 590 286 616 "},"4":{"x_min":15.59375,"x_max":591.40625,"ha":632,"o":"m 157 322 l 347 322 l 394 664 l 157 322 m 591 300 q 554 258 575 279 q 518 227 533 238 l 478 227 l 459 90 q 461 80 458 85 q 474 71 465 76 q 499 60 483 66 q 541 49 516 55 l 535 0 l 171 0 l 178 49 q 246 63 219 56 q 288 75 273 69 q 309 86 303 81 q 316 98 316 92 l 334 227 l 37 227 l 15 254 l 389 791 q 424 803 405 796 q 463 817 444 810 q 502 831 483 824 q 535 844 520 838 l 558 815 l 491 322 l 577 322 l 591 300 "},"R":{"x_min":-5.59375,"x_max":786.5625,"ha":776,"o":"m 380 804 q 364 803 372 804 q 348 803 356 803 l 304 478 q 336 471 320 472 q 369 469 351 469 q 437 481 404 469 q 495 514 470 492 q 536 567 521 535 q 551 639 551 598 q 535 721 551 689 q 494 771 519 753 q 439 797 468 790 q 380 804 409 804 m 786 78 q 728 44 760 61 q 668 16 697 28 q 617 -2 640 4 q 585 -10 594 -10 q 563 -6 574 -10 q 540 6 551 -3 q 518 33 529 15 q 496 79 507 50 l 374 394 q 333 396 355 394 q 294 402 312 398 l 252 90 q 271 70 250 82 q 335 49 292 59 l 328 0 l -5 0 l 1 49 q 67 70 43 59 q 92 90 90 81 l 186 787 q 136 779 160 784 q 90 770 111 775 l 90 832 q 158 848 121 841 q 237 862 195 856 q 323 871 278 868 q 414 875 368 875 q 541 861 486 875 q 635 819 597 847 q 693 751 673 792 q 714 658 714 711 q 699 588 714 625 q 657 516 684 551 q 588 453 629 482 q 494 409 547 425 l 644 144 q 665 118 654 127 q 689 108 675 110 q 722 111 703 107 q 768 125 741 116 l 786 78 "},"o":{"x_min":26,"x_max":591,"ha":617,"o":"m 433 326 q 424 418 433 377 q 400 485 415 458 q 366 526 386 512 q 325 541 346 541 q 259 517 285 541 q 215 456 232 493 q 192 374 199 419 q 185 285 185 329 q 194 199 185 239 q 220 129 204 159 q 256 81 236 99 q 298 64 277 64 q 343 75 323 64 q 378 107 363 87 q 403 153 393 127 q 420 208 414 179 q 429 268 426 237 q 433 326 433 298 m 591 379 q 579 287 591 333 q 546 196 568 240 q 494 113 524 153 q 426 42 463 73 q 386 15 408 28 q 341 -7 364 2 q 295 -22 318 -17 q 252 -28 273 -28 q 157 -7 199 -28 q 86 46 115 12 q 41 129 57 81 q 26 233 26 177 q 35 327 26 282 q 65 415 44 373 q 117 496 85 457 q 194 569 149 535 q 233 595 212 583 q 278 616 255 607 q 325 629 301 624 q 371 635 349 635 q 465 616 424 635 q 534 563 506 597 q 576 482 562 529 q 591 379 591 435 "},"5":{"x_min":4.84375,"x_max":617.96875,"ha":632,"o":"m 617 804 q 596 776 609 793 q 567 743 582 760 q 539 713 552 727 q 517 694 525 700 l 249 694 q 238 648 244 674 q 225 597 232 623 q 212 549 218 572 q 200 511 205 526 q 263 531 225 523 q 339 539 301 539 q 437 520 396 539 q 506 471 478 501 q 547 402 533 440 q 561 323 561 363 q 551 241 561 282 q 524 162 542 200 q 478 90 506 124 q 415 32 451 56 q 334 -6 379 7 q 235 -21 289 -21 q 174 -13 205 -21 q 114 6 143 -6 q 56 40 84 20 q 4 88 28 61 l 42 149 q 99 109 73 125 q 149 84 126 94 q 193 72 172 75 q 235 69 215 69 q 303 86 272 69 q 357 135 335 104 q 392 205 379 165 q 405 290 405 245 q 395 351 405 323 q 370 398 386 378 q 329 428 353 417 q 275 439 305 439 q 186 422 225 439 q 110 379 147 406 l 82 401 q 101 459 90 426 q 121 531 111 493 q 143 610 132 570 q 163 688 154 650 q 180 759 172 726 q 192 817 187 793 l 522 817 q 553 818 539 817 q 576 823 567 820 q 596 829 588 825 l 617 804 "}}}
